<svg xmlns="http://www.w3.org/2000/svg" xmlns:rdkit="http://www.rdkit.org/xml" xmlns:xlink="http://www.w3.org/1999/xlink" version="1.1" baseProfile="full" xml:space="preserve" width="300px" height="300px" viewBox="0 0 300 300">
<!-- END OF HEADER -->
<rect style="opacity:1.0;fill:#FFFFFF;stroke:none" width="300.0" height="300.0" x="0.0" y="0.0"> </rect>
<path class="bond-0 atom-0 atom-1" d="M 237.1,65.5 L 222.9,82.7" style="fill:none;fill-rule:evenodd;stroke:#000000;stroke-width:5.0px;stroke-linecap:butt;stroke-linejoin:miter;stroke-opacity:1"/>
<path class="bond-0 atom-0 atom-1" d="M 222.9,82.7 L 208.8,100.0" style="fill:none;fill-rule:evenodd;stroke:#0000FF;stroke-width:5.0px;stroke-linecap:butt;stroke-linejoin:miter;stroke-opacity:1"/>
<path class="bond-1 atom-1 atom-2" d="M 192.8,108.5 L 168.5,104.5" style="fill:none;fill-rule:evenodd;stroke:#0000FF;stroke-width:5.0px;stroke-linecap:butt;stroke-linejoin:miter;stroke-opacity:1"/>
<path class="bond-1 atom-1 atom-2" d="M 168.5,104.5 L 144.3,100.5" style="fill:none;fill-rule:evenodd;stroke:#000000;stroke-width:5.0px;stroke-linecap:butt;stroke-linejoin:miter;stroke-opacity:1"/>
<path class="bond-2 atom-2 atom-3" d="M 149.2,101.3 L 140.6,78.6" style="fill:none;fill-rule:evenodd;stroke:#000000;stroke-width:5.0px;stroke-linecap:butt;stroke-linejoin:miter;stroke-opacity:1"/>
<path class="bond-2 atom-2 atom-3" d="M 140.6,78.6 L 132.0,55.8" style="fill:none;fill-rule:evenodd;stroke:#FF0000;stroke-width:5.0px;stroke-linecap:butt;stroke-linejoin:miter;stroke-opacity:1"/>
<path class="bond-2 atom-2 atom-3" d="M 141.1,104.4 L 132.5,81.6" style="fill:none;fill-rule:evenodd;stroke:#000000;stroke-width:5.0px;stroke-linecap:butt;stroke-linejoin:miter;stroke-opacity:1"/>
<path class="bond-2 atom-2 atom-3" d="M 132.5,81.6 L 123.9,58.8" style="fill:none;fill-rule:evenodd;stroke:#FF0000;stroke-width:5.0px;stroke-linecap:butt;stroke-linejoin:miter;stroke-opacity:1"/>
<path class="bond-3 atom-2 atom-4" d="M 144.3,100.5 L 108.0,144.9" style="fill:none;fill-rule:evenodd;stroke:#000000;stroke-width:5.0px;stroke-linecap:butt;stroke-linejoin:miter;stroke-opacity:1"/>
<path class="bond-4 atom-4 atom-5" d="M 108.0,144.9 L 128.3,198.4" style="fill:none;fill-rule:evenodd;stroke:#000000;stroke-width:5.0px;stroke-linecap:butt;stroke-linejoin:miter;stroke-opacity:1"/>
<path class="bond-4 atom-4 atom-5" d="M 117.8,146.5 L 134.5,190.7" style="fill:none;fill-rule:evenodd;stroke:#000000;stroke-width:5.0px;stroke-linecap:butt;stroke-linejoin:miter;stroke-opacity:1"/>
<path class="bond-5 atom-5 atom-6" d="M 128.3,198.4 L 109.9,213.1" style="fill:none;fill-rule:evenodd;stroke:#000000;stroke-width:5.0px;stroke-linecap:butt;stroke-linejoin:miter;stroke-opacity:1"/>
<path class="bond-5 atom-5 atom-6" d="M 109.9,213.1 L 91.6,227.8" style="fill:none;fill-rule:evenodd;stroke:#0000FF;stroke-width:5.0px;stroke-linecap:butt;stroke-linejoin:miter;stroke-opacity:1"/>
<path class="bond-6 atom-6 atom-7" d="M 75.5,229.0 L 55.6,215.9" style="fill:none;fill-rule:evenodd;stroke:#0000FF;stroke-width:5.0px;stroke-linecap:butt;stroke-linejoin:miter;stroke-opacity:1"/>
<path class="bond-6 atom-6 atom-7" d="M 55.6,215.9 L 35.7,202.8" style="fill:none;fill-rule:evenodd;stroke:#000000;stroke-width:5.0px;stroke-linecap:butt;stroke-linejoin:miter;stroke-opacity:1"/>
<path class="bond-6 atom-6 atom-7" d="M 80.3,221.8 L 62.9,210.4" style="fill:none;fill-rule:evenodd;stroke:#0000FF;stroke-width:5.0px;stroke-linecap:butt;stroke-linejoin:miter;stroke-opacity:1"/>
<path class="bond-6 atom-6 atom-7" d="M 62.9,210.4 L 45.6,199.0" style="fill:none;fill-rule:evenodd;stroke:#000000;stroke-width:5.0px;stroke-linecap:butt;stroke-linejoin:miter;stroke-opacity:1"/>
<path class="bond-7 atom-7 atom-8" d="M 35.7,202.8 L 41.9,180.2" style="fill:none;fill-rule:evenodd;stroke:#000000;stroke-width:5.0px;stroke-linecap:butt;stroke-linejoin:miter;stroke-opacity:1"/>
<path class="bond-7 atom-7 atom-8" d="M 41.9,180.2 L 48.1,157.6" style="fill:none;fill-rule:evenodd;stroke:#0000FF;stroke-width:5.0px;stroke-linecap:butt;stroke-linejoin:miter;stroke-opacity:1"/>
<path class="bond-8 atom-8 atom-9" d="M 42.8,137.6 L 28.9,120.2" style="fill:none;fill-rule:evenodd;stroke:#0000FF;stroke-width:5.0px;stroke-linecap:butt;stroke-linejoin:miter;stroke-opacity:1"/>
<path class="bond-8 atom-8 atom-9" d="M 28.9,120.2 L 15.0,102.9" style="fill:none;fill-rule:evenodd;stroke:#000000;stroke-width:5.0px;stroke-linecap:butt;stroke-linejoin:miter;stroke-opacity:1"/>
<path class="bond-9 atom-5 atom-10" d="M 128.3,198.4 L 152.5,202.4" style="fill:none;fill-rule:evenodd;stroke:#000000;stroke-width:5.0px;stroke-linecap:butt;stroke-linejoin:miter;stroke-opacity:1"/>
<path class="bond-9 atom-5 atom-10" d="M 152.5,202.4 L 176.7,206.3" style="fill:none;fill-rule:evenodd;stroke:#0000FF;stroke-width:5.0px;stroke-linecap:butt;stroke-linejoin:miter;stroke-opacity:1"/>
<path class="bond-10 atom-10 atom-11" d="M 188.6,217.7 L 196.8,239.4" style="fill:none;fill-rule:evenodd;stroke:#0000FF;stroke-width:5.0px;stroke-linecap:butt;stroke-linejoin:miter;stroke-opacity:1"/>
<path class="bond-10 atom-10 atom-11" d="M 196.8,239.4 L 205.0,261.2" style="fill:none;fill-rule:evenodd;stroke:#000000;stroke-width:5.0px;stroke-linecap:butt;stroke-linejoin:miter;stroke-opacity:1"/>
<path class="bond-11 atom-10 atom-12" d="M 192.8,197.8 L 206.9,180.6" style="fill:none;fill-rule:evenodd;stroke:#0000FF;stroke-width:5.0px;stroke-linecap:butt;stroke-linejoin:miter;stroke-opacity:1"/>
<path class="bond-11 atom-10 atom-12" d="M 206.9,180.6 L 221.0,163.3" style="fill:none;fill-rule:evenodd;stroke:#000000;stroke-width:5.0px;stroke-linecap:butt;stroke-linejoin:miter;stroke-opacity:1"/>
<path class="bond-12 atom-12 atom-13" d="M 217.9,167.2 L 242.7,171.2" style="fill:none;fill-rule:evenodd;stroke:#000000;stroke-width:5.0px;stroke-linecap:butt;stroke-linejoin:miter;stroke-opacity:1"/>
<path class="bond-12 atom-12 atom-13" d="M 242.7,171.2 L 267.5,175.3" style="fill:none;fill-rule:evenodd;stroke:#FF0000;stroke-width:5.0px;stroke-linecap:butt;stroke-linejoin:miter;stroke-opacity:1"/>
<path class="bond-12 atom-12 atom-13" d="M 219.3,158.7 L 244.1,162.8" style="fill:none;fill-rule:evenodd;stroke:#000000;stroke-width:5.0px;stroke-linecap:butt;stroke-linejoin:miter;stroke-opacity:1"/>
<path class="bond-12 atom-12 atom-13" d="M 244.1,162.8 L 268.9,166.8" style="fill:none;fill-rule:evenodd;stroke:#FF0000;stroke-width:5.0px;stroke-linecap:butt;stroke-linejoin:miter;stroke-opacity:1"/>
<path class="bond-13 atom-12 atom-1" d="M 221.0,163.3 L 212.8,141.6" style="fill:none;fill-rule:evenodd;stroke:#000000;stroke-width:5.0px;stroke-linecap:butt;stroke-linejoin:miter;stroke-opacity:1"/>
<path class="bond-13 atom-12 atom-1" d="M 212.8,141.6 L 204.6,119.8" style="fill:none;fill-rule:evenodd;stroke:#0000FF;stroke-width:5.0px;stroke-linecap:butt;stroke-linejoin:miter;stroke-opacity:1"/>
<path class="bond-14 atom-8 atom-4" d="M 58.9,147.2 L 83.4,146.0" style="fill:none;fill-rule:evenodd;stroke:#0000FF;stroke-width:5.0px;stroke-linecap:butt;stroke-linejoin:miter;stroke-opacity:1"/>
<path class="bond-14 atom-8 atom-4" d="M 83.4,146.0 L 108.0,144.9" style="fill:none;fill-rule:evenodd;stroke:#000000;stroke-width:5.0px;stroke-linecap:butt;stroke-linejoin:miter;stroke-opacity:1"/>
<path d="M 145.5,100.7 L 144.3,100.5 L 142.5,102.8" style="fill:none;stroke:#000000;stroke-width:5.0px;stroke-linecap:butt;stroke-linejoin:miter;stroke-miterlimit:10;stroke-opacity:1;"/>
<path d="M 36.7,203.5 L 35.7,202.8 L 36.0,201.7" style="fill:none;stroke:#000000;stroke-width:5.0px;stroke-linecap:butt;stroke-linejoin:miter;stroke-miterlimit:10;stroke-opacity:1;"/>
<path d="M 220.3,164.2 L 221.0,163.3 L 220.6,162.3" style="fill:none;stroke:#000000;stroke-width:5.0px;stroke-linecap:butt;stroke-linejoin:miter;stroke-miterlimit:10;stroke-opacity:1;"/>
<path class="atom-1" d="M 197.2 101.7 L 202.5 110.3 Q 203.0 111.1, 203.9 112.6 Q 204.7 114.2, 204.8 114.3 L 204.8 101.7 L 206.9 101.7 L 206.9 117.9 L 204.7 117.9 L 199.0 108.5 Q 198.4 107.4, 197.6 106.1 Q 197.0 104.9, 196.7 104.5 L 196.7 117.9 L 194.6 117.9 L 194.6 101.7 L 197.2 101.7 " fill="#0000FF"/>
<path class="atom-3" d="M 116.6 47.0 Q 116.6 43.1, 118.5 40.9 Q 120.4 38.8, 124.0 38.8 Q 127.6 38.8, 129.5 40.9 Q 131.5 43.1, 131.5 47.0 Q 131.5 51.0, 129.5 53.2 Q 127.6 55.4, 124.0 55.4 Q 120.5 55.4, 118.5 53.2 Q 116.6 51.0, 116.6 47.0 M 124.0 53.6 Q 126.5 53.6, 127.8 51.9 Q 129.2 50.3, 129.2 47.0 Q 129.2 43.8, 127.8 42.2 Q 126.5 40.6, 124.0 40.6 Q 121.6 40.6, 120.2 42.2 Q 118.9 43.8, 118.9 47.0 Q 118.9 50.3, 120.2 51.9 Q 121.6 53.6, 124.0 53.6 " fill="#FF0000"/>
<path class="atom-6" d="M 80.0 226.1 L 85.3 234.7 Q 85.8 235.6, 86.7 237.1 Q 87.5 238.6, 87.6 238.7 L 87.6 226.1 L 89.7 226.1 L 89.7 242.3 L 87.5 242.3 L 81.8 233.0 Q 81.1 231.9, 80.4 230.6 Q 79.7 229.3, 79.5 228.9 L 79.5 242.3 L 77.4 242.3 L 77.4 226.1 L 80.0 226.1 " fill="#0000FF"/>
<path class="atom-8" d="M 47.2 139.5 L 52.5 148.0 Q 53.1 148.9, 53.9 150.4 Q 54.8 152.0, 54.8 152.1 L 54.8 139.5 L 57.0 139.5 L 57.0 155.7 L 54.7 155.7 L 49.0 146.3 Q 48.4 145.2, 47.7 143.9 Q 47.0 142.7, 46.8 142.3 L 46.8 155.7 L 44.7 155.7 L 44.7 139.5 L 47.2 139.5 " fill="#0000FF"/>
<path class="atom-10" d="M 181.2 199.6 L 186.5 208.1 Q 187.0 209.0, 187.9 210.5 Q 188.7 212.1, 188.8 212.2 L 188.8 199.6 L 190.9 199.6 L 190.9 215.8 L 188.7 215.8 L 183.0 206.4 Q 182.3 205.3, 181.6 204.0 Q 180.9 202.8, 180.7 202.4 L 180.7 215.8 L 178.6 215.8 L 178.6 199.6 L 181.2 199.6 " fill="#0000FF"/>
<path class="atom-13" d="M 270.1 172.6 Q 270.1 168.7, 272.0 166.6 Q 274.0 164.4, 277.6 164.4 Q 281.2 164.4, 283.1 166.6 Q 285.0 168.7, 285.0 172.6 Q 285.0 176.6, 283.1 178.8 Q 281.1 181.0, 277.6 181.0 Q 274.0 181.0, 272.0 178.8 Q 270.1 176.6, 270.1 172.6 M 277.6 179.2 Q 280.0 179.2, 281.4 177.6 Q 282.7 175.9, 282.7 172.6 Q 282.7 169.4, 281.4 167.8 Q 280.0 166.2, 277.6 166.2 Q 275.1 166.2, 273.7 167.8 Q 272.4 169.4, 272.4 172.6 Q 272.4 175.9, 273.7 177.6 Q 275.1 179.2, 277.6 179.2 " fill="#FF0000"/>
</svg>