<svg xmlns="http://www.w3.org/2000/svg" xmlns:rdkit="http://www.rdkit.org/xml" xmlns:xlink="http://www.w3.org/1999/xlink" version="1.1" baseProfile="full" xml:space="preserve" width="300px" height="300px" viewBox="0 0 300 300">
<!-- END OF HEADER -->
<rect style="opacity:1.0;fill:#FFFFFF;stroke:none" width="300.0" height="300.0" x="0.0" y="0.0"> </rect>
<path class="bond-0 atom-0 atom-1" d="M 89.2,197.7 L 80.0,196.6" style="fill:none;fill-rule:evenodd;stroke:#000000;stroke-width:2.0px;stroke-linecap:butt;stroke-linejoin:miter;stroke-opacity:1"/>
<path class="bond-0 atom-0 atom-1" d="M 80.0,196.6 L 70.7,195.5" style="fill:none;fill-rule:evenodd;stroke:#0000FF;stroke-width:2.0px;stroke-linecap:butt;stroke-linejoin:miter;stroke-opacity:1"/>
<path class="bond-0 atom-0 atom-1" d="M 87.8,194.3 L 79.4,193.3" style="fill:none;fill-rule:evenodd;stroke:#000000;stroke-width:2.0px;stroke-linecap:butt;stroke-linejoin:miter;stroke-opacity:1"/>
<path class="bond-0 atom-0 atom-1" d="M 79.4,193.3 L 71.1,192.3" style="fill:none;fill-rule:evenodd;stroke:#0000FF;stroke-width:2.0px;stroke-linecap:butt;stroke-linejoin:miter;stroke-opacity:1"/>
<path class="bond-1 atom-1 atom-2" d="M 66.6,191.5 L 64.0,185.5" style="fill:none;fill-rule:evenodd;stroke:#0000FF;stroke-width:2.0px;stroke-linecap:butt;stroke-linejoin:miter;stroke-opacity:1"/>
<path class="bond-1 atom-1 atom-2" d="M 64.0,185.5 L 61.4,179.5" style="fill:none;fill-rule:evenodd;stroke:#000000;stroke-width:2.0px;stroke-linecap:butt;stroke-linejoin:miter;stroke-opacity:1"/>
<path class="bond-2 atom-2 atom-3" d="M 62.6,172.0 L 68.9,163.5" style="fill:none;fill-rule:evenodd;stroke:#000000;stroke-width:2.0px;stroke-linecap:butt;stroke-linejoin:miter;stroke-opacity:1"/>
<path class="bond-2 atom-2 atom-3" d="M 65.1,173.9 L 71.5,165.4" style="fill:none;fill-rule:evenodd;stroke:#000000;stroke-width:2.0px;stroke-linecap:butt;stroke-linejoin:miter;stroke-opacity:1"/>
<path class="bond-3 atom-3 atom-4" d="M 75.2,159.1 L 90.5,160.9" style="fill:none;fill-rule:evenodd;stroke:#000000;stroke-width:2.0px;stroke-linecap:butt;stroke-linejoin:miter;stroke-opacity:1"/>
<path class="bond-4 atom-4 atom-5" d="M 95.2,165.0 L 97.7,171.0" style="fill:none;fill-rule:evenodd;stroke:#000000;stroke-width:2.0px;stroke-linecap:butt;stroke-linejoin:miter;stroke-opacity:1"/>
<path class="bond-4 atom-4 atom-5" d="M 97.7,171.0 L 100.3,177.0" style="fill:none;fill-rule:evenodd;stroke:#0000FF;stroke-width:2.0px;stroke-linecap:butt;stroke-linejoin:miter;stroke-opacity:1"/>
<path class="bond-4 atom-4 atom-5" d="M 92.2,166.3 L 94.8,172.3" style="fill:none;fill-rule:evenodd;stroke:#000000;stroke-width:2.0px;stroke-linecap:butt;stroke-linejoin:miter;stroke-opacity:1"/>
<path class="bond-4 atom-4 atom-5" d="M 94.8,172.3 L 97.4,178.2" style="fill:none;fill-rule:evenodd;stroke:#0000FF;stroke-width:2.0px;stroke-linecap:butt;stroke-linejoin:miter;stroke-opacity:1"/>
<path class="bond-5 atom-4 atom-6" d="M 95.2,157.5 L 97.9,151.6" style="fill:none;fill-rule:evenodd;stroke:#000000;stroke-width:2.0px;stroke-linecap:butt;stroke-linejoin:miter;stroke-opacity:1"/>
<path class="bond-5 atom-4 atom-6" d="M 97.9,151.6 L 100.7,145.7" style="fill:none;fill-rule:evenodd;stroke:#0000FF;stroke-width:2.0px;stroke-linecap:butt;stroke-linejoin:miter;stroke-opacity:1"/>
<path class="bond-6 atom-6 atom-7" d="M 99.4,139.2 L 95.1,135.3" style="fill:none;fill-rule:evenodd;stroke:#0000FF;stroke-width:2.0px;stroke-linecap:butt;stroke-linejoin:miter;stroke-opacity:1"/>
<path class="bond-6 atom-6 atom-7" d="M 95.1,135.3 L 90.8,131.3" style="fill:none;fill-rule:evenodd;stroke:#000000;stroke-width:2.0px;stroke-linecap:butt;stroke-linejoin:miter;stroke-opacity:1"/>
<path class="bond-7 atom-7 atom-8" d="M 80.6,131.1 L 75.9,133.7" style="fill:none;fill-rule:evenodd;stroke:#000000;stroke-width:2.0px;stroke-linecap:butt;stroke-linejoin:miter;stroke-opacity:1"/>
<path class="bond-7 atom-7 atom-8" d="M 75.9,133.7 L 71.1,136.4" style="fill:none;fill-rule:evenodd;stroke:#0000FF;stroke-width:2.0px;stroke-linecap:butt;stroke-linejoin:miter;stroke-opacity:1"/>
<path class="bond-7 atom-7 atom-8" d="M 82.1,133.9 L 77.4,136.5" style="fill:none;fill-rule:evenodd;stroke:#000000;stroke-width:2.0px;stroke-linecap:butt;stroke-linejoin:miter;stroke-opacity:1"/>
<path class="bond-7 atom-7 atom-8" d="M 77.4,136.5 L 72.7,139.2" style="fill:none;fill-rule:evenodd;stroke:#0000FF;stroke-width:2.0px;stroke-linecap:butt;stroke-linejoin:miter;stroke-opacity:1"/>
<path class="bond-8 atom-9 atom-6" d="M 112.6,139.9 L 110.4,141.2 L 110.1,139.6 Z" style="fill:#000000;fill-rule:evenodd;fill-opacity:1;stroke:#000000;stroke-width:0.5px;stroke-linecap:butt;stroke-linejoin:miter;stroke-miterlimit:10;stroke-opacity:1;"/>
<path class="bond-8 atom-9 atom-6" d="M 110.4,141.2 L 107.6,139.3 L 108.2,142.4 Z" style="fill:#0000FF;fill-rule:evenodd;fill-opacity:1;stroke:#0000FF;stroke-width:0.5px;stroke-linecap:butt;stroke-linejoin:miter;stroke-miterlimit:10;stroke-opacity:1;"/>
<path class="bond-8 atom-9 atom-6" d="M 110.4,141.2 L 110.1,139.6 L 107.6,139.3 Z" style="fill:#0000FF;fill-rule:evenodd;fill-opacity:1;stroke:#0000FF;stroke-width:0.5px;stroke-linecap:butt;stroke-linejoin:miter;stroke-miterlimit:10;stroke-opacity:1;"/>
<path class="bond-9 atom-9 atom-10" d="M 124.9,134.1 L 130.3,122.3" style="fill:none;fill-rule:evenodd;stroke:#000000;stroke-width:2.0px;stroke-linecap:butt;stroke-linejoin:miter;stroke-opacity:1"/>
<path class="bond-10 atom-10 atom-11" d="M 134.9,118.9 L 150.0,120.7" style="fill:none;fill-rule:evenodd;stroke:#000000;stroke-width:2.0px;stroke-linecap:butt;stroke-linejoin:miter;stroke-opacity:1"/>
<path class="bond-11 atom-11 atom-12" d="M 153.8,124.8 L 156.5,138.1" style="fill:none;fill-rule:evenodd;stroke:#000000;stroke-width:2.0px;stroke-linecap:butt;stroke-linejoin:miter;stroke-opacity:1"/>
<path class="bond-12 atom-12 atom-13" d="M 154.2,143.5 L 149.8,146.0" style="fill:none;fill-rule:evenodd;stroke:#000000;stroke-width:2.0px;stroke-linecap:butt;stroke-linejoin:miter;stroke-opacity:1"/>
<path class="bond-12 atom-12 atom-13" d="M 149.8,146.0 L 145.4,148.4" style="fill:none;fill-rule:evenodd;stroke:#FF0000;stroke-width:2.0px;stroke-linecap:butt;stroke-linejoin:miter;stroke-opacity:1"/>
<path class="bond-13 atom-12 atom-14" d="M 166.8,146.2 L 173.4,147.5 L 172.1,150.4 Z" style="fill:#000000;fill-rule:evenodd;fill-opacity:1;stroke:#000000;stroke-width:0.5px;stroke-linecap:butt;stroke-linejoin:miter;stroke-miterlimit:10;stroke-opacity:1;"/>
<path class="bond-14 atom-14 atom-15" d="M 176.8,154.5 L 177.4,161.3" style="fill:none;fill-rule:evenodd;stroke:#000000;stroke-width:2.0px;stroke-linecap:butt;stroke-linejoin:miter;stroke-opacity:1"/>
<path class="bond-14 atom-14 atom-15" d="M 177.4,161.3 L 178.1,168.1" style="fill:none;fill-rule:evenodd;stroke:#FF0000;stroke-width:2.0px;stroke-linecap:butt;stroke-linejoin:miter;stroke-opacity:1"/>
<path class="bond-15 atom-15 atom-16" d="M 181.1,173.0 L 185.4,175.0" style="fill:none;fill-rule:evenodd;stroke:#FF0000;stroke-width:2.0px;stroke-linecap:butt;stroke-linejoin:miter;stroke-opacity:1"/>
<path class="bond-15 atom-15 atom-16" d="M 185.4,175.0 L 189.7,176.9" style="fill:none;fill-rule:evenodd;stroke:#FF7F00;stroke-width:2.0px;stroke-linecap:butt;stroke-linejoin:miter;stroke-opacity:1"/>
<path class="bond-16 atom-16 atom-17" d="M 200.8,177.6 L 203.5,171.7" style="fill:none;fill-rule:evenodd;stroke:#FF7F00;stroke-width:2.0px;stroke-linecap:butt;stroke-linejoin:miter;stroke-opacity:1"/>
<path class="bond-16 atom-16 atom-17" d="M 203.5,171.7 L 206.2,165.8" style="fill:none;fill-rule:evenodd;stroke:#FF0000;stroke-width:2.0px;stroke-linecap:butt;stroke-linejoin:miter;stroke-opacity:1"/>
<path class="bond-16 atom-16 atom-17" d="M 197.9,176.2 L 200.6,170.4" style="fill:none;fill-rule:evenodd;stroke:#FF7F00;stroke-width:2.0px;stroke-linecap:butt;stroke-linejoin:miter;stroke-opacity:1"/>
<path class="bond-16 atom-16 atom-17" d="M 200.6,170.4 L 203.3,164.5" style="fill:none;fill-rule:evenodd;stroke:#FF0000;stroke-width:2.0px;stroke-linecap:butt;stroke-linejoin:miter;stroke-opacity:1"/>
<path class="bond-17 atom-16 atom-18" d="M 195.5,185.3 L 193.0,190.7" style="fill:none;fill-rule:evenodd;stroke:#FF7F00;stroke-width:2.0px;stroke-linecap:butt;stroke-linejoin:miter;stroke-opacity:1"/>
<path class="bond-17 atom-16 atom-18" d="M 193.0,190.7 L 190.5,196.1" style="fill:none;fill-rule:evenodd;stroke:#FF0000;stroke-width:2.0px;stroke-linecap:butt;stroke-linejoin:miter;stroke-opacity:1"/>
<path class="bond-18 atom-16 atom-19" d="M 205.8,184.3 L 207.3,185.0" style="fill:none;fill-rule:evenodd;stroke:#FF7F00;stroke-width:2.0px;stroke-linecap:butt;stroke-linejoin:miter;stroke-opacity:1"/>
<path class="bond-18 atom-16 atom-19" d="M 207.3,185.0 L 208.8,185.7" style="fill:none;fill-rule:evenodd;stroke:#FF0000;stroke-width:2.0px;stroke-linecap:butt;stroke-linejoin:miter;stroke-opacity:1"/>
<path class="bond-19 atom-19 atom-20" d="M 222.2,185.7 L 225.6,183.3" style="fill:none;fill-rule:evenodd;stroke:#FF0000;stroke-width:2.0px;stroke-linecap:butt;stroke-linejoin:miter;stroke-opacity:1"/>
<path class="bond-19 atom-19 atom-20" d="M 225.6,183.3 L 228.9,180.9" style="fill:none;fill-rule:evenodd;stroke:#FF7F00;stroke-width:2.0px;stroke-linecap:butt;stroke-linejoin:miter;stroke-opacity:1"/>
<path class="bond-20 atom-20 atom-21" d="M 235.6,181.8 L 239.0,186.8" style="fill:none;fill-rule:evenodd;stroke:#FF7F00;stroke-width:2.0px;stroke-linecap:butt;stroke-linejoin:miter;stroke-opacity:1"/>
<path class="bond-20 atom-20 atom-21" d="M 239.0,186.8 L 242.5,191.7" style="fill:none;fill-rule:evenodd;stroke:#FF0000;stroke-width:2.0px;stroke-linecap:butt;stroke-linejoin:miter;stroke-opacity:1"/>
<path class="bond-20 atom-20 atom-21" d="M 238.2,180.0 L 241.6,184.9" style="fill:none;fill-rule:evenodd;stroke:#FF7F00;stroke-width:2.0px;stroke-linecap:butt;stroke-linejoin:miter;stroke-opacity:1"/>
<path class="bond-20 atom-20 atom-21" d="M 241.6,184.9 L 245.1,189.8" style="fill:none;fill-rule:evenodd;stroke:#FF0000;stroke-width:2.0px;stroke-linecap:butt;stroke-linejoin:miter;stroke-opacity:1"/>
<path class="bond-21 atom-20 atom-22" d="M 232.1,174.2 L 228.3,168.9" style="fill:none;fill-rule:evenodd;stroke:#FF7F00;stroke-width:2.0px;stroke-linecap:butt;stroke-linejoin:miter;stroke-opacity:1"/>
<path class="bond-21 atom-20 atom-22" d="M 228.3,168.9 L 224.6,163.6" style="fill:none;fill-rule:evenodd;stroke:#FF0000;stroke-width:2.0px;stroke-linecap:butt;stroke-linejoin:miter;stroke-opacity:1"/>
<path class="bond-22 atom-20 atom-23" d="M 239.5,173.5 L 243.8,170.4" style="fill:none;fill-rule:evenodd;stroke:#FF7F00;stroke-width:2.0px;stroke-linecap:butt;stroke-linejoin:miter;stroke-opacity:1"/>
<path class="bond-22 atom-20 atom-23" d="M 243.8,170.4 L 248.1,167.4" style="fill:none;fill-rule:evenodd;stroke:#FF0000;stroke-width:2.0px;stroke-linecap:butt;stroke-linejoin:miter;stroke-opacity:1"/>
<path class="bond-23 atom-23 atom-24" d="M 251.2,161.2 L 250.5,154.4" style="fill:none;fill-rule:evenodd;stroke:#FF0000;stroke-width:2.0px;stroke-linecap:butt;stroke-linejoin:miter;stroke-opacity:1"/>
<path class="bond-23 atom-23 atom-24" d="M 250.5,154.4 L 249.9,147.6" style="fill:none;fill-rule:evenodd;stroke:#FF7F00;stroke-width:2.0px;stroke-linecap:butt;stroke-linejoin:miter;stroke-opacity:1"/>
<path class="bond-24 atom-24 atom-25" d="M 258.3,144.6 L 262.8,144.2" style="fill:none;fill-rule:evenodd;stroke:#FF7F00;stroke-width:2.0px;stroke-linecap:butt;stroke-linejoin:miter;stroke-opacity:1"/>
<path class="bond-24 atom-24 atom-25" d="M 262.8,144.2 L 267.3,143.8" style="fill:none;fill-rule:evenodd;stroke:#FF0000;stroke-width:2.0px;stroke-linecap:butt;stroke-linejoin:miter;stroke-opacity:1"/>
<path class="bond-24 atom-24 atom-25" d="M 258.0,141.5 L 262.5,141.0" style="fill:none;fill-rule:evenodd;stroke:#FF7F00;stroke-width:2.0px;stroke-linecap:butt;stroke-linejoin:miter;stroke-opacity:1"/>
<path class="bond-24 atom-24 atom-25" d="M 262.5,141.0 L 267.0,140.6" style="fill:none;fill-rule:evenodd;stroke:#FF0000;stroke-width:2.0px;stroke-linecap:butt;stroke-linejoin:miter;stroke-opacity:1"/>
<path class="bond-25 atom-24 atom-26" d="M 240.9,144.7 L 236.1,145.1" style="fill:none;fill-rule:evenodd;stroke:#FF7F00;stroke-width:2.0px;stroke-linecap:butt;stroke-linejoin:miter;stroke-opacity:1"/>
<path class="bond-25 atom-24 atom-26" d="M 236.1,145.1 L 231.2,145.6" style="fill:none;fill-rule:evenodd;stroke:#FF0000;stroke-width:2.0px;stroke-linecap:butt;stroke-linejoin:miter;stroke-opacity:1"/>
<path class="bond-26 atom-24 atom-27" d="M 249.2,140.1 L 248.6,133.3" style="fill:none;fill-rule:evenodd;stroke:#FF7F00;stroke-width:2.0px;stroke-linecap:butt;stroke-linejoin:miter;stroke-opacity:1"/>
<path class="bond-26 atom-24 atom-27" d="M 248.6,133.3 L 247.9,126.6" style="fill:none;fill-rule:evenodd;stroke:#FF0000;stroke-width:2.0px;stroke-linecap:butt;stroke-linejoin:miter;stroke-opacity:1"/>
<path class="bond-27 atom-11 atom-28" d="M 158.8,114.0 L 159.5,114.7" style="fill:none;fill-rule:evenodd;stroke:#000000;stroke-width:1.0px;stroke-linecap:butt;stroke-linejoin:miter;stroke-opacity:1"/>
<path class="bond-27 atom-11 atom-28" d="M 160.4,111.4 L 162.0,112.9" style="fill:none;fill-rule:evenodd;stroke:#FF0000;stroke-width:1.0px;stroke-linecap:butt;stroke-linejoin:miter;stroke-opacity:1"/>
<path class="bond-27 atom-11 atom-28" d="M 162.1,108.9 L 164.4,111.0" style="fill:none;fill-rule:evenodd;stroke:#FF0000;stroke-width:1.0px;stroke-linecap:butt;stroke-linejoin:miter;stroke-opacity:1"/>
<path class="bond-28 atom-10 atom-29" d="M 127.3,111.2 L 128.2,110.7" style="fill:none;fill-rule:evenodd;stroke:#000000;stroke-width:1.0px;stroke-linecap:butt;stroke-linejoin:miter;stroke-opacity:1"/>
<path class="bond-28 atom-10 atom-29" d="M 125.0,108.3 L 126.9,107.2" style="fill:none;fill-rule:evenodd;stroke:#FF0000;stroke-width:1.0px;stroke-linecap:butt;stroke-linejoin:miter;stroke-opacity:1"/>
<path class="bond-28 atom-10 atom-29" d="M 122.8,105.3 L 125.5,103.8" style="fill:none;fill-rule:evenodd;stroke:#FF0000;stroke-width:1.0px;stroke-linecap:butt;stroke-linejoin:miter;stroke-opacity:1"/>
<path class="bond-29 atom-2 atom-30" d="M 53.6,175.0 L 47.6,174.3" style="fill:none;fill-rule:evenodd;stroke:#000000;stroke-width:2.0px;stroke-linecap:butt;stroke-linejoin:miter;stroke-opacity:1"/>
<path class="bond-29 atom-2 atom-30" d="M 47.6,174.3 L 41.7,173.6" style="fill:none;fill-rule:evenodd;stroke:#0000FF;stroke-width:2.0px;stroke-linecap:butt;stroke-linejoin:miter;stroke-opacity:1"/>
<path class="bond-30 atom-5 atom-0" d="M 99.1,184.4 L 94.2,191.0" style="fill:none;fill-rule:evenodd;stroke:#0000FF;stroke-width:2.0px;stroke-linecap:butt;stroke-linejoin:miter;stroke-opacity:1"/>
<path class="bond-30 atom-5 atom-0" d="M 94.2,191.0 L 89.2,197.7" style="fill:none;fill-rule:evenodd;stroke:#000000;stroke-width:2.0px;stroke-linecap:butt;stroke-linejoin:miter;stroke-opacity:1"/>
<path class="bond-31 atom-8 atom-3" d="M 69.1,141.8 L 70.4,148.4" style="fill:none;fill-rule:evenodd;stroke:#0000FF;stroke-width:2.0px;stroke-linecap:butt;stroke-linejoin:miter;stroke-opacity:1"/>
<path class="bond-31 atom-8 atom-3" d="M 70.4,148.4 L 71.7,155.0" style="fill:none;fill-rule:evenodd;stroke:#000000;stroke-width:2.0px;stroke-linecap:butt;stroke-linejoin:miter;stroke-opacity:1"/>
<path class="bond-32 atom-13 atom-9" d="M 134.7,148.4 L 130.3,144.4" style="fill:none;fill-rule:evenodd;stroke:#FF0000;stroke-width:2.0px;stroke-linecap:butt;stroke-linejoin:miter;stroke-opacity:1"/>
<path class="bond-32 atom-13 atom-9" d="M 130.3,144.4 L 125.9,140.4" style="fill:none;fill-rule:evenodd;stroke:#000000;stroke-width:2.0px;stroke-linecap:butt;stroke-linejoin:miter;stroke-opacity:1"/>
<path d="M 88.8,197.6 L 89.2,197.7 L 89.5,197.3" style="fill:none;stroke:#000000;stroke-width:2.0px;stroke-linecap:butt;stroke-linejoin:miter;stroke-miterlimit:10;stroke-opacity:1;"/>
<path class="atom-1" d="M 60.0 192.2 L 62.0 195.4 Q 62.2 195.7, 62.5 196.3 Q 62.8 196.8, 62.8 196.9 L 62.8 192.2 L 63.6 192.2 L 63.6 198.2 L 62.8 198.2 L 60.7 194.7 Q 60.4 194.3, 60.2 193.9 Q 59.9 193.4, 59.8 193.3 L 59.8 198.2 L 59.1 198.2 L 59.1 192.2 L 60.0 192.2 " fill="#0000FF"/>
<path class="atom-1" d="M 64.6 197.2 L 65.5 197.2 L 65.5 198.1 L 64.6 198.1 L 64.6 197.2 M 64.6 194.3 L 65.5 194.3 L 65.5 195.1 L 64.6 195.1 L 64.6 194.3 " fill="#0000FF"/>
<path class="atom-1" d="M 66.7 197.5 L 68.0 197.5 L 68.0 193.0 L 66.6 193.5 L 66.4 193.0 L 68.2 192.2 L 68.8 192.3 L 68.8 197.5 L 70.0 197.5 L 70.0 198.2 L 66.7 198.2 L 66.7 197.5 " fill="#0000FF"/>
<path class="atom-2" d="M 54.3 175.8 Q 54.3 174.3, 54.9 173.5 Q 55.6 172.7, 57.0 172.7 Q 58.2 172.7, 58.9 173.6 L 58.3 174.0 Q 57.8 173.4, 57.0 173.4 Q 56.1 173.4, 55.6 174.0 Q 55.1 174.6, 55.1 175.8 Q 55.1 176.9, 55.6 177.6 Q 56.1 178.2, 57.1 178.2 Q 57.7 178.2, 58.5 177.8 L 58.7 178.4 Q 58.4 178.6, 58.0 178.7 Q 57.5 178.8, 57.0 178.8 Q 55.6 178.8, 54.9 178.0 Q 54.3 177.2, 54.3 175.8 " fill="#000000"/>
<path class="atom-2" d="M 59.5 177.8 L 60.4 177.8 L 60.4 178.6 L 59.5 178.6 L 59.5 177.8 M 59.5 174.9 L 60.4 174.9 L 60.4 175.7 L 59.5 175.7 L 59.5 174.9 " fill="#000000"/>
<path class="atom-2" d="M 61.4 173.9 Q 61.6 173.3, 62.1 173.0 Q 62.6 172.7, 63.4 172.7 Q 64.3 172.7, 64.8 173.2 Q 65.3 173.7, 65.3 174.6 Q 65.3 175.4, 64.6 176.3 Q 64.0 177.1, 62.6 178.1 L 65.4 178.1 L 65.4 178.8 L 61.3 178.8 L 61.3 178.2 Q 62.5 177.4, 63.1 176.8 Q 63.8 176.2, 64.1 175.7 Q 64.4 175.1, 64.4 174.6 Q 64.4 174.0, 64.1 173.7 Q 63.9 173.4, 63.4 173.4 Q 62.9 173.4, 62.5 173.6 Q 62.2 173.8, 62.0 174.2 L 61.4 173.9 " fill="#000000"/>
<path class="atom-3" d="M 63.4 158.8 Q 63.4 157.3, 64.1 156.5 Q 64.8 155.7, 66.1 155.7 Q 67.3 155.7, 68.0 156.6 L 67.4 157.0 Q 67.0 156.4, 66.1 156.4 Q 65.2 156.4, 64.7 157.0 Q 64.2 157.6, 64.2 158.8 Q 64.2 160.0, 64.7 160.6 Q 65.2 161.2, 66.2 161.2 Q 66.9 161.2, 67.6 160.8 L 67.9 161.4 Q 67.6 161.6, 67.1 161.7 Q 66.6 161.9, 66.1 161.9 Q 64.8 161.9, 64.1 161.1 Q 63.4 160.3, 63.4 158.8 " fill="#000000"/>
<path class="atom-3" d="M 68.7 160.8 L 69.5 160.8 L 69.5 161.6 L 68.7 161.6 L 68.7 160.8 M 68.7 157.9 L 69.5 157.9 L 69.5 158.7 L 68.7 158.7 L 68.7 157.9 " fill="#000000"/>
<path class="atom-3" d="M 73.3 158.6 Q 73.9 158.8, 74.2 159.2 Q 74.5 159.5, 74.5 160.1 Q 74.5 160.6, 74.2 161.0 Q 74.0 161.4, 73.5 161.6 Q 73.1 161.9, 72.4 161.9 Q 71.8 161.9, 71.3 161.6 Q 70.8 161.4, 70.5 161.0 L 70.9 160.5 Q 71.3 160.9, 71.6 161.0 Q 71.9 161.2, 72.4 161.2 Q 73.0 161.2, 73.3 160.9 Q 73.6 160.6, 73.6 160.1 Q 73.6 159.5, 73.3 159.2 Q 73.0 159.0, 72.2 159.0 L 71.8 159.0 L 71.8 158.3 L 72.2 158.3 Q 72.8 158.3, 73.2 158.1 Q 73.5 157.8, 73.5 157.2 Q 73.5 156.8, 73.2 156.6 Q 72.9 156.4, 72.4 156.4 Q 71.9 156.4, 71.6 156.6 Q 71.3 156.7, 71.1 157.2 L 70.5 156.9 Q 70.7 156.4, 71.2 156.0 Q 71.7 155.7, 72.4 155.7 Q 73.3 155.7, 73.8 156.1 Q 74.4 156.5, 74.4 157.2 Q 74.4 157.7, 74.1 158.1 Q 73.8 158.4, 73.3 158.6 " fill="#000000"/>
<path class="atom-4" d="M 91.2 161.2 Q 91.2 159.7, 91.9 159.0 Q 92.6 158.2, 93.9 158.2 Q 95.2 158.2, 95.8 159.0 L 95.3 159.5 Q 94.8 158.9, 93.9 158.9 Q 93.0 158.9, 92.5 159.5 Q 92.1 160.1, 92.1 161.2 Q 92.1 162.4, 92.6 163.0 Q 93.1 163.6, 94.0 163.6 Q 94.7 163.6, 95.5 163.2 L 95.7 163.9 Q 95.4 164.1, 94.9 164.2 Q 94.4 164.3, 93.9 164.3 Q 92.6 164.3, 91.9 163.5 Q 91.2 162.7, 91.2 161.2 " fill="#000000"/>
<path class="atom-4" d="M 96.5 163.3 L 97.4 163.3 L 97.4 164.1 L 96.5 164.1 L 96.5 163.3 M 96.5 160.3 L 97.4 160.3 L 97.4 161.2 L 96.5 161.2 L 96.5 160.3 " fill="#000000"/>
<path class="atom-4" d="M 102.2 162.2 L 102.9 162.2 L 102.9 162.9 L 102.2 162.9 L 102.2 164.2 L 101.4 164.2 L 101.4 162.9 L 98.3 162.9 L 98.3 162.3 L 101.0 158.2 L 102.2 158.2 L 102.2 162.2 M 99.3 162.2 L 101.4 162.2 L 101.4 158.8 L 99.3 162.2 " fill="#000000"/>
<path class="atom-5" d="M 100.6 177.7 L 102.5 180.8 Q 102.7 181.2, 103.1 181.7 Q 103.4 182.3, 103.4 182.3 L 103.4 177.7 L 104.2 177.7 L 104.2 183.7 L 103.4 183.7 L 101.2 180.2 Q 101.0 179.8, 100.7 179.3 Q 100.5 178.9, 100.4 178.7 L 100.4 183.7 L 99.6 183.7 L 99.6 177.7 L 100.6 177.7 " fill="#0000FF"/>
<path class="atom-5" d="M 105.2 182.7 L 106.0 182.7 L 106.0 183.5 L 105.2 183.5 L 105.2 182.7 M 105.2 179.8 L 106.0 179.8 L 106.0 180.6 L 105.2 180.6 L 105.2 179.8 " fill="#0000FF"/>
<path class="atom-5" d="M 109.2 179.9 Q 109.7 179.9, 110.1 180.1 Q 110.6 180.4, 110.8 180.8 Q 111.1 181.2, 111.1 181.8 Q 111.1 182.4, 110.8 182.8 Q 110.5 183.3, 110.0 183.5 Q 109.5 183.7, 108.9 183.7 Q 108.4 183.7, 107.9 183.5 Q 107.3 183.3, 107.0 182.9 L 107.5 182.4 Q 107.8 182.7, 108.2 182.9 Q 108.5 183.0, 108.9 183.0 Q 109.5 183.0, 109.8 182.7 Q 110.2 182.4, 110.2 181.8 Q 110.2 181.2, 109.8 180.9 Q 109.5 180.5, 108.9 180.5 Q 108.4 180.5, 107.8 180.8 L 107.3 180.6 L 107.6 177.7 L 110.7 177.7 L 110.6 178.3 L 108.3 178.3 L 108.1 180.1 Q 108.7 179.9, 109.2 179.9 " fill="#0000FF"/>
<path class="atom-6" d="M 101.0 139.0 L 103.0 142.2 Q 103.2 142.5, 103.5 143.0 Q 103.8 143.6, 103.9 143.7 L 103.9 139.0 L 104.6 139.0 L 104.6 145.0 L 103.8 145.0 L 101.7 141.5 Q 101.5 141.1, 101.2 140.6 Q 101.0 140.2, 100.9 140.0 L 100.9 145.0 L 100.1 145.0 L 100.1 139.0 L 101.0 139.0 " fill="#0000FF"/>
<path class="atom-6" d="M 105.7 144.0 L 106.5 144.0 L 106.5 144.8 L 105.7 144.8 L 105.7 144.0 M 105.7 141.1 L 106.5 141.1 L 106.5 141.9 L 105.7 141.9 L 105.7 141.1 " fill="#0000FF"/>
<path class="atom-6" d="M 109.8 141.2 Q 110.3 141.2, 110.8 141.5 Q 111.2 141.7, 111.4 142.1 Q 111.6 142.5, 111.6 143.1 Q 111.6 143.6, 111.4 144.1 Q 111.1 144.5, 110.7 144.8 Q 110.2 145.1, 109.6 145.1 Q 108.5 145.1, 108.0 144.3 Q 107.5 143.6, 107.5 142.2 Q 107.5 140.6, 108.1 139.8 Q 108.8 138.9, 110.1 138.9 Q 110.5 138.9, 110.8 139.0 Q 111.1 139.1, 111.4 139.3 L 111.1 139.8 Q 110.6 139.6, 110.1 139.6 Q 109.2 139.6, 108.8 140.1 Q 108.4 140.7, 108.3 141.8 Q 108.6 141.5, 109.0 141.4 Q 109.4 141.2, 109.8 141.2 M 109.6 144.4 Q 109.9 144.4, 110.2 144.2 Q 110.5 144.0, 110.6 143.7 Q 110.8 143.4, 110.8 143.1 Q 110.8 142.5, 110.5 142.2 Q 110.2 141.9, 109.7 141.9 Q 109.3 141.9, 108.9 142.1 Q 108.6 142.2, 108.3 142.5 Q 108.4 143.5, 108.7 143.9 Q 109.0 144.4, 109.6 144.4 " fill="#0000FF"/>
<path class="atom-7" d="M 81.3 127.6 Q 81.3 126.1, 82.0 125.3 Q 82.7 124.6, 84.0 124.6 Q 85.2 124.6, 85.9 125.4 L 85.3 125.9 Q 84.8 125.2, 84.0 125.2 Q 83.1 125.2, 82.6 125.9 Q 82.1 126.5, 82.1 127.6 Q 82.1 128.8, 82.6 129.4 Q 83.1 130.0, 84.1 130.0 Q 84.7 130.0, 85.5 129.6 L 85.8 130.3 Q 85.4 130.5, 85.0 130.6 Q 84.5 130.7, 84.0 130.7 Q 82.7 130.7, 82.0 129.9 Q 81.3 129.1, 81.3 127.6 " fill="#000000"/>
<path class="atom-7" d="M 86.5 129.6 L 87.4 129.6 L 87.4 130.5 L 86.5 130.5 L 86.5 129.6 M 86.5 126.7 L 87.4 126.7 L 87.4 127.6 L 86.5 127.6 L 86.5 126.7 " fill="#000000"/>
<path class="atom-7" d="M 91.5 125.3 L 88.3 125.3 L 88.3 124.6 L 92.3 124.6 L 92.3 125.2 L 89.9 130.6 L 89.1 130.6 L 91.5 125.3 " fill="#000000"/>
<path class="atom-8" d="M 59.8 135.0 L 61.7 138.2 Q 61.9 138.5, 62.2 139.1 Q 62.6 139.6, 62.6 139.7 L 62.6 135.0 L 63.4 135.0 L 63.4 141.0 L 62.5 141.0 L 60.4 137.5 Q 60.2 137.1, 59.9 136.6 Q 59.7 136.2, 59.6 136.0 L 59.6 141.0 L 58.8 141.0 L 58.8 135.0 L 59.8 135.0 " fill="#0000FF"/>
<path class="atom-8" d="M 64.4 140.0 L 65.2 140.0 L 65.2 140.9 L 64.4 140.9 L 64.4 140.0 M 64.4 137.1 L 65.2 137.1 L 65.2 137.9 L 64.4 137.9 L 64.4 137.1 " fill="#0000FF"/>
<path class="atom-8" d="M 69.3 137.8 Q 69.8 138.1, 70.1 138.4 Q 70.4 138.8, 70.4 139.4 Q 70.4 139.9, 70.2 140.3 Q 69.9 140.6, 69.4 140.9 Q 69.0 141.1, 68.4 141.1 Q 67.4 141.1, 66.8 140.6 Q 66.2 140.2, 66.2 139.4 Q 66.2 138.9, 66.5 138.5 Q 66.7 138.1, 67.2 137.8 Q 66.8 137.6, 66.6 137.3 Q 66.4 137.0, 66.4 136.5 Q 66.4 135.8, 66.9 135.3 Q 67.4 134.9, 68.3 134.9 Q 69.2 134.9, 69.7 135.3 Q 70.2 135.8, 70.2 136.5 Q 70.2 136.9, 70.0 137.2 Q 69.7 137.6, 69.3 137.8 M 68.3 135.6 Q 67.8 135.6, 67.5 135.8 Q 67.3 136.0, 67.3 136.5 Q 67.3 136.8, 67.5 137.0 Q 67.6 137.2, 67.9 137.3 Q 68.2 137.4, 68.7 137.6 Q 69.1 137.4, 69.2 137.1 Q 69.4 136.8, 69.4 136.5 Q 69.4 136.0, 69.1 135.8 Q 68.8 135.6, 68.3 135.6 M 68.4 140.4 Q 68.9 140.4, 69.3 140.1 Q 69.6 139.8, 69.6 139.3 Q 69.6 139.0, 69.4 138.8 Q 69.2 138.6, 69.0 138.5 Q 68.7 138.4, 68.2 138.2 L 67.8 138.1 Q 67.4 138.4, 67.2 138.7 Q 67.0 139.0, 67.0 139.3 Q 67.0 139.8, 67.4 140.1 Q 67.8 140.4, 68.4 140.4 " fill="#0000FF"/>
<path class="atom-9" d="M 114.0 137.8 Q 114.0 136.3, 114.7 135.6 Q 115.4 134.8, 116.7 134.8 Q 117.9 134.8, 118.6 135.6 L 118.0 136.1 Q 117.6 135.5, 116.7 135.5 Q 115.8 135.5, 115.3 136.1 Q 114.8 136.7, 114.8 137.8 Q 114.8 139.0, 115.3 139.6 Q 115.8 140.2, 116.8 140.2 Q 117.5 140.2, 118.2 139.8 L 118.5 140.5 Q 118.2 140.7, 117.7 140.8 Q 117.2 140.9, 116.7 140.9 Q 115.4 140.9, 114.7 140.1 Q 114.0 139.3, 114.0 137.8 " fill="#000000"/>
<path class="atom-9" d="M 119.3 139.8 L 120.1 139.8 L 120.1 140.7 L 119.3 140.7 L 119.3 139.8 M 119.3 136.9 L 120.1 136.9 L 120.1 137.8 L 119.3 137.8 L 119.3 136.9 " fill="#000000"/>
<path class="atom-9" d="M 123.1 134.8 Q 124.2 134.8, 124.7 135.5 Q 125.2 136.2, 125.2 137.7 Q 125.2 139.2, 124.6 140.1 Q 123.9 140.9, 122.6 140.9 Q 122.2 140.9, 121.9 140.8 Q 121.6 140.7, 121.3 140.6 L 121.6 140.0 Q 122.1 140.2, 122.6 140.2 Q 123.5 140.2, 123.9 139.7 Q 124.3 139.1, 124.4 138.0 Q 124.1 138.3, 123.7 138.4 Q 123.3 138.6, 122.9 138.6 Q 122.4 138.6, 121.9 138.3 Q 121.5 138.1, 121.3 137.7 Q 121.1 137.3, 121.1 136.8 Q 121.1 136.2, 121.3 135.7 Q 121.6 135.3, 122.0 135.0 Q 122.5 134.8, 123.1 134.8 M 121.9 136.8 Q 121.9 137.3, 122.2 137.6 Q 122.5 137.9, 123.0 137.9 Q 123.4 137.9, 123.8 137.8 Q 124.1 137.6, 124.4 137.3 Q 124.3 136.4, 124.0 135.9 Q 123.7 135.5, 123.1 135.5 Q 122.8 135.5, 122.5 135.6 Q 122.2 135.8, 122.1 136.1 Q 121.9 136.4, 121.9 136.8 " fill="#000000"/>
<path class="atom-10" d="M 118.4 118.6 Q 118.4 117.1, 119.1 116.3 Q 119.8 115.5, 121.1 115.5 Q 122.3 115.5, 123.0 116.4 L 122.4 116.8 Q 122.0 116.2, 121.1 116.2 Q 120.2 116.2, 119.7 116.8 Q 119.2 117.4, 119.2 118.6 Q 119.2 119.8, 119.7 120.4 Q 120.2 121.0, 121.2 121.0 Q 121.9 121.0, 122.6 120.6 L 122.9 121.2 Q 122.5 121.4, 122.1 121.5 Q 121.6 121.7, 121.1 121.7 Q 119.8 121.7, 119.1 120.9 Q 118.4 120.1, 118.4 118.6 " fill="#000000"/>
<path class="atom-10" d="M 123.7 120.6 L 124.5 120.6 L 124.5 121.4 L 123.7 121.4 L 123.7 120.6 M 123.7 117.7 L 124.5 117.7 L 124.5 118.5 L 123.7 118.5 L 123.7 117.7 " fill="#000000"/>
<path class="atom-10" d="M 125.8 120.9 L 127.1 120.9 L 127.1 116.4 L 125.7 116.9 L 125.5 116.4 L 127.3 115.5 L 127.9 115.6 L 127.9 120.9 L 129.1 120.9 L 129.1 121.6 L 125.8 121.6 L 125.8 120.9 " fill="#000000"/>
<path class="atom-10" d="M 132.0 121.6 Q 130.9 121.6, 130.3 120.8 Q 129.8 120.0, 129.8 118.6 Q 129.8 117.1, 130.3 116.3 Q 130.9 115.5, 132.0 115.5 Q 133.1 115.5, 133.7 116.3 Q 134.2 117.1, 134.2 118.6 Q 134.2 120.0, 133.6 120.8 Q 133.1 121.6, 132.0 121.6 M 132.0 121.0 Q 132.7 121.0, 133.0 120.4 Q 133.3 119.8, 133.3 118.6 Q 133.3 117.4, 133.0 116.8 Q 132.7 116.2, 132.0 116.2 Q 131.4 116.2, 131.0 116.8 Q 130.7 117.4, 130.7 118.6 Q 130.7 119.8, 131.0 120.4 Q 131.4 121.0, 132.0 121.0 " fill="#000000"/>
<path class="atom-11" d="M 150.7 121.0 Q 150.7 119.5, 151.4 118.8 Q 152.1 118.0, 153.5 118.0 Q 154.7 118.0, 155.4 118.9 L 154.8 119.3 Q 154.3 118.7, 153.5 118.7 Q 152.6 118.7, 152.1 119.3 Q 151.6 119.9, 151.6 121.0 Q 151.6 122.2, 152.1 122.8 Q 152.6 123.4, 153.6 123.4 Q 154.2 123.4, 155.0 123.0 L 155.2 123.7 Q 154.9 123.9, 154.4 124.0 Q 154.0 124.1, 153.4 124.1 Q 152.1 124.1, 151.4 123.3 Q 150.7 122.5, 150.7 121.0 " fill="#000000"/>
<path class="atom-11" d="M 156.0 123.1 L 156.9 123.1 L 156.9 123.9 L 156.0 123.9 L 156.0 123.1 M 156.0 120.1 L 156.9 120.1 L 156.9 121.0 L 156.0 121.0 L 156.0 120.1 " fill="#000000"/>
<path class="atom-11" d="M 158.1 123.4 L 159.5 123.4 L 159.5 118.9 L 158.0 119.3 L 157.8 118.8 L 159.7 118.0 L 160.3 118.1 L 160.3 123.4 L 161.4 123.4 L 161.4 124.0 L 158.1 124.0 L 158.1 123.4 " fill="#000000"/>
<path class="atom-11" d="M 162.4 123.4 L 163.8 123.4 L 163.8 118.9 L 162.3 119.3 L 162.1 118.8 L 164.0 118.0 L 164.6 118.1 L 164.6 123.4 L 165.7 123.4 L 165.7 124.0 L 162.4 124.0 L 162.4 123.4 " fill="#000000"/>
<path class="atom-12" d="M 154.9 141.8 Q 154.9 140.3, 155.6 139.5 Q 156.3 138.8, 157.6 138.8 Q 158.9 138.8, 159.5 139.6 L 159.0 140.1 Q 158.5 139.5, 157.6 139.5 Q 156.7 139.5, 156.2 140.1 Q 155.8 140.7, 155.8 141.8 Q 155.8 143.0, 156.2 143.6 Q 156.7 144.2, 157.7 144.2 Q 158.4 144.2, 159.1 143.8 L 159.4 144.5 Q 159.1 144.7, 158.6 144.8 Q 158.1 144.9, 157.6 144.9 Q 156.3 144.9, 155.6 144.1 Q 154.9 143.3, 154.9 141.8 " fill="#000000"/>
<path class="atom-12" d="M 160.2 143.8 L 161.0 143.8 L 161.0 144.7 L 160.2 144.7 L 160.2 143.8 M 160.2 140.9 L 161.0 140.9 L 161.0 141.8 L 160.2 141.8 L 160.2 140.9 " fill="#000000"/>
<path class="atom-12" d="M 162.3 144.1 L 163.6 144.1 L 163.6 139.7 L 162.2 140.1 L 162.0 139.6 L 163.8 138.8 L 164.4 138.9 L 164.4 144.1 L 165.6 144.1 L 165.6 144.8 L 162.3 144.8 L 162.3 144.1 " fill="#000000"/>
<path class="atom-12" d="M 166.3 140.0 Q 166.5 139.4, 167.1 139.1 Q 167.6 138.8, 168.3 138.8 Q 169.2 138.8, 169.7 139.2 Q 170.2 139.7, 170.2 140.6 Q 170.2 141.5, 169.6 142.3 Q 168.9 143.2, 167.6 144.1 L 170.3 144.1 L 170.3 144.8 L 166.3 144.8 L 166.3 144.3 Q 167.4 143.5, 168.1 142.9 Q 168.7 142.3, 169.1 141.7 Q 169.4 141.2, 169.4 140.7 Q 169.4 140.1, 169.1 139.8 Q 168.8 139.4, 168.3 139.4 Q 167.8 139.4, 167.5 139.6 Q 167.2 139.8, 167.0 140.3 L 166.3 140.0 " fill="#000000"/>
<path class="atom-13" d="M 130.5 152.2 Q 130.5 150.7, 131.2 149.9 Q 131.9 149.1, 133.2 149.1 Q 134.6 149.1, 135.3 149.9 Q 136.0 150.7, 136.0 152.2 Q 136.0 153.6, 135.3 154.5 Q 134.6 155.3, 133.2 155.3 Q 131.9 155.3, 131.2 154.5 Q 130.5 153.6, 130.5 152.2 M 133.2 154.6 Q 134.2 154.6, 134.6 154.0 Q 135.1 153.4, 135.1 152.2 Q 135.1 151.0, 134.6 150.4 Q 134.2 149.8, 133.2 149.8 Q 132.3 149.8, 131.8 150.4 Q 131.3 151.0, 131.3 152.2 Q 131.3 153.4, 131.8 154.0 Q 132.3 154.6, 133.2 154.6 " fill="#FF0000"/>
<path class="atom-13" d="M 136.8 154.2 L 137.6 154.2 L 137.6 155.1 L 136.8 155.1 L 136.8 154.2 M 136.8 151.3 L 137.6 151.3 L 137.6 152.1 L 136.8 152.1 L 136.8 151.3 " fill="#FF0000"/>
<path class="atom-13" d="M 138.9 154.5 L 140.2 154.5 L 140.2 150.0 L 138.8 150.5 L 138.6 150.0 L 140.4 149.2 L 141.0 149.3 L 141.0 154.5 L 142.2 154.5 L 142.2 155.2 L 138.9 155.2 L 138.9 154.5 " fill="#FF0000"/>
<path class="atom-13" d="M 145.8 152.0 Q 146.4 152.2, 146.7 152.6 Q 147.0 153.0, 147.0 153.6 Q 147.0 154.1, 146.7 154.5 Q 146.5 154.9, 146.0 155.1 Q 145.5 155.3, 144.9 155.3 Q 144.3 155.3, 143.8 155.1 Q 143.3 154.8, 142.9 154.4 L 143.4 153.9 Q 143.8 154.3, 144.1 154.5 Q 144.4 154.6, 144.9 154.6 Q 145.5 154.6, 145.8 154.3 Q 146.1 154.0, 146.1 153.5 Q 146.1 152.9, 145.8 152.7 Q 145.4 152.4, 144.7 152.4 L 144.3 152.4 L 144.3 151.8 L 144.6 151.8 Q 145.3 151.8, 145.6 151.5 Q 146.0 151.2, 146.0 150.7 Q 146.0 150.3, 145.7 150.0 Q 145.4 149.8, 144.9 149.8 Q 144.4 149.8, 144.1 150.0 Q 143.8 150.2, 143.6 150.6 L 143.0 150.3 Q 143.2 149.8, 143.7 149.5 Q 144.2 149.1, 144.9 149.1 Q 145.8 149.1, 146.3 149.5 Q 146.8 150.0, 146.8 150.7 Q 146.8 151.1, 146.6 151.5 Q 146.3 151.8, 145.8 152.0 " fill="#FF0000"/>
<path class="atom-14" d="M 174.1 150.7 Q 174.1 149.2, 174.8 148.4 Q 175.5 147.6, 176.9 147.6 Q 178.1 147.6, 178.8 148.5 L 178.2 148.9 Q 177.7 148.3, 176.9 148.3 Q 176.0 148.3, 175.5 148.9 Q 175.0 149.5, 175.0 150.7 Q 175.0 151.9, 175.5 152.5 Q 176.0 153.1, 177.0 153.1 Q 177.6 153.1, 178.4 152.7 L 178.6 153.3 Q 178.3 153.5, 177.8 153.6 Q 177.4 153.8, 176.8 153.8 Q 175.5 153.8, 174.8 153.0 Q 174.1 152.2, 174.1 150.7 " fill="#000000"/>
<path class="atom-14" d="M 179.5 152.7 L 180.3 152.7 L 180.3 153.5 L 179.5 153.5 L 179.5 152.7 M 179.5 149.8 L 180.3 149.8 L 180.3 150.6 L 179.5 150.6 L 179.5 149.8 " fill="#000000"/>
<path class="atom-14" d="M 181.6 153.0 L 182.9 153.0 L 182.9 148.5 L 181.5 149.0 L 181.3 148.5 L 183.1 147.6 L 183.7 147.7 L 183.7 153.0 L 184.9 153.0 L 184.9 153.7 L 181.6 153.7 L 181.6 153.0 " fill="#000000"/>
<path class="atom-14" d="M 189.5 151.6 L 190.2 151.6 L 190.2 152.3 L 189.5 152.3 L 189.5 153.7 L 188.7 153.7 L 188.7 152.3 L 185.6 152.3 L 185.6 151.8 L 188.2 147.7 L 189.5 147.7 L 189.5 151.6 M 186.6 151.6 L 188.7 151.6 L 188.7 148.2 L 186.6 151.6 " fill="#000000"/>
<path class="atom-15" d="M 163.9 171.8 Q 163.9 170.3, 164.7 169.5 Q 165.4 168.7, 166.7 168.7 Q 168.0 168.7, 168.7 169.5 Q 169.5 170.3, 169.5 171.8 Q 169.5 173.2, 168.7 174.0 Q 168.0 174.9, 166.7 174.9 Q 165.4 174.9, 164.7 174.0 Q 163.9 173.2, 163.9 171.8 M 166.7 174.2 Q 167.6 174.2, 168.1 173.6 Q 168.6 173.0, 168.6 171.8 Q 168.6 170.6, 168.1 170.0 Q 167.6 169.4, 166.7 169.4 Q 165.8 169.4, 165.3 170.0 Q 164.8 170.6, 164.8 171.8 Q 164.8 173.0, 165.3 173.6 Q 165.8 174.2, 166.7 174.2 " fill="#FF0000"/>
<path class="atom-15" d="M 170.2 173.8 L 171.1 173.8 L 171.1 174.6 L 170.2 174.6 L 170.2 173.8 M 170.2 170.9 L 171.1 170.9 L 171.1 171.7 L 170.2 171.7 L 170.2 170.9 " fill="#FF0000"/>
<path class="atom-15" d="M 172.4 174.1 L 173.7 174.1 L 173.7 169.6 L 172.3 170.1 L 172.1 169.6 L 173.9 168.7 L 174.5 168.8 L 174.5 174.1 L 175.7 174.1 L 175.7 174.8 L 172.4 174.8 L 172.4 174.1 " fill="#FF0000"/>
<path class="atom-15" d="M 178.6 171.0 Q 179.1 171.0, 179.5 171.3 Q 180.0 171.5, 180.2 171.9 Q 180.4 172.3, 180.4 172.9 Q 180.4 173.5, 180.1 173.9 Q 179.8 174.4, 179.4 174.6 Q 178.9 174.8, 178.3 174.8 Q 177.8 174.8, 177.2 174.6 Q 176.7 174.4, 176.4 174.0 L 176.9 173.5 Q 177.2 173.8, 177.6 174.0 Q 177.9 174.2, 178.3 174.2 Q 178.9 174.2, 179.2 173.8 Q 179.6 173.5, 179.6 172.9 Q 179.6 172.3, 179.2 172.0 Q 178.9 171.7, 178.3 171.7 Q 177.8 171.7, 177.2 171.9 L 176.7 171.7 L 177.0 168.8 L 180.1 168.8 L 180.0 169.5 L 177.7 169.5 L 177.5 171.2 Q 178.0 171.0, 178.6 171.0 " fill="#FF0000"/>
<path class="atom-16" d="M 192.0 177.6 Q 193.1 177.6, 193.6 178.1 Q 194.1 178.6, 194.1 179.4 Q 194.1 180.2, 193.6 180.7 Q 193.0 181.2, 192.0 181.2 L 191.1 181.2 L 191.1 183.6 L 190.3 183.6 L 190.3 177.6 L 192.0 177.6 M 192.0 180.5 Q 192.6 180.5, 192.9 180.2 Q 193.3 179.9, 193.3 179.4 Q 193.3 178.9, 192.9 178.6 Q 192.6 178.3, 192.0 178.3 L 191.1 178.3 L 191.1 180.5 L 192.0 180.5 " fill="#FF7F00"/>
<path class="atom-16" d="M 194.8 182.6 L 195.7 182.6 L 195.7 183.5 L 194.8 183.5 L 194.8 182.6 M 194.8 179.7 L 195.7 179.7 L 195.7 180.6 L 194.8 180.6 L 194.8 179.7 " fill="#FF7F00"/>
<path class="atom-16" d="M 196.9 182.9 L 198.3 182.9 L 198.3 178.5 L 196.8 178.9 L 196.6 178.4 L 198.5 177.6 L 199.1 177.7 L 199.1 182.9 L 200.2 182.9 L 200.2 183.6 L 196.9 183.6 L 196.9 182.9 " fill="#FF7F00"/>
<path class="atom-16" d="M 203.2 179.9 Q 203.8 179.9, 204.2 180.1 Q 204.6 180.3, 204.8 180.8 Q 205.1 181.2, 205.1 181.7 Q 205.1 182.3, 204.8 182.7 Q 204.5 183.2, 204.1 183.4 Q 203.6 183.7, 203.0 183.7 Q 202.0 183.7, 201.4 183.0 Q 200.9 182.2, 200.9 180.8 Q 200.9 179.2, 201.6 178.4 Q 202.2 177.6, 203.5 177.6 Q 203.9 177.6, 204.2 177.6 Q 204.5 177.7, 204.8 177.9 L 204.5 178.5 Q 204.1 178.2, 203.5 178.2 Q 202.7 178.2, 202.2 178.8 Q 201.8 179.3, 201.8 180.5 Q 202.1 180.2, 202.4 180.0 Q 202.8 179.9, 203.2 179.9 M 203.1 183.0 Q 203.4 183.0, 203.6 182.8 Q 203.9 182.7, 204.1 182.4 Q 204.2 182.1, 204.2 181.7 Q 204.2 181.2, 203.9 180.9 Q 203.6 180.6, 203.1 180.6 Q 202.7 180.6, 202.4 180.7 Q 202.0 180.9, 201.8 181.1 Q 201.8 182.1, 202.1 182.6 Q 202.4 183.0, 203.1 183.0 " fill="#FF7F00"/>
<path class="atom-17" d="M 203.8 161.4 Q 203.8 159.9, 204.5 159.1 Q 205.2 158.3, 206.5 158.3 Q 207.9 158.3, 208.6 159.1 Q 209.3 159.9, 209.3 161.4 Q 209.3 162.8, 208.6 163.6 Q 207.8 164.5, 206.5 164.5 Q 205.2 164.5, 204.5 163.6 Q 203.8 162.8, 203.8 161.4 M 206.5 163.8 Q 207.4 163.8, 207.9 163.2 Q 208.4 162.6, 208.4 161.4 Q 208.4 160.2, 207.9 159.6 Q 207.4 159.0, 206.5 159.0 Q 205.6 159.0, 205.1 159.6 Q 204.6 160.2, 204.6 161.4 Q 204.6 162.6, 205.1 163.2 Q 205.6 163.8, 206.5 163.8 " fill="#FF0000"/>
<path class="atom-17" d="M 210.0 163.4 L 210.9 163.4 L 210.9 164.2 L 210.0 164.2 L 210.0 163.4 M 210.0 160.5 L 210.9 160.5 L 210.9 161.3 L 210.0 161.3 L 210.0 160.5 " fill="#FF0000"/>
<path class="atom-17" d="M 212.2 163.7 L 213.5 163.7 L 213.5 159.2 L 212.1 159.7 L 211.9 159.2 L 213.7 158.3 L 214.3 158.4 L 214.3 163.7 L 215.5 163.7 L 215.5 164.4 L 212.2 164.4 L 212.2 163.7 " fill="#FF0000"/>
<path class="atom-17" d="M 219.3 159.1 L 216.2 159.1 L 216.2 158.4 L 220.2 158.4 L 220.2 159.0 L 217.8 164.4 L 216.9 164.4 L 219.3 159.1 " fill="#FF0000"/>
<path class="atom-18" d="M 168.4 196.9 L 169.2 196.9 L 169.2 199.4 L 172.3 199.4 L 172.3 196.9 L 173.1 196.9 L 173.1 202.9 L 172.3 202.9 L 172.3 200.1 L 169.2 200.1 L 169.2 202.9 L 168.4 202.9 L 168.4 196.9 " fill="#FF0000"/>
<path class="atom-18" d="M 174.2 199.9 Q 174.2 198.4, 174.9 197.6 Q 175.6 196.8, 176.9 196.8 Q 178.3 196.8, 179.0 197.6 Q 179.7 198.4, 179.7 199.9 Q 179.7 201.3, 179.0 202.2 Q 178.2 203.0, 176.9 203.0 Q 175.6 203.0, 174.9 202.2 Q 174.2 201.3, 174.2 199.9 M 176.9 202.3 Q 177.8 202.3, 178.3 201.7 Q 178.8 201.1, 178.8 199.9 Q 178.8 198.7, 178.3 198.1 Q 177.8 197.5, 176.9 197.5 Q 176.0 197.5, 175.5 198.1 Q 175.0 198.7, 175.0 199.9 Q 175.0 201.1, 175.5 201.7 Q 176.0 202.3, 176.9 202.3 " fill="#FF0000"/>
<path class="atom-18" d="M 180.5 201.9 L 181.3 201.9 L 181.3 202.7 L 180.5 202.7 L 180.5 201.9 M 180.5 199.0 L 181.3 199.0 L 181.3 199.8 L 180.5 199.8 L 180.5 199.0 " fill="#FF0000"/>
<path class="atom-18" d="M 182.7 202.2 L 184.0 202.2 L 184.0 197.7 L 182.5 198.2 L 182.3 197.7 L 184.2 196.8 L 184.8 196.9 L 184.8 202.2 L 186.0 202.2 L 186.0 202.9 L 182.7 202.9 L 182.7 202.2 " fill="#FF0000"/>
<path class="atom-18" d="M 189.8 199.7 Q 190.3 199.9, 190.6 200.3 Q 190.9 200.6, 190.9 201.2 Q 190.9 201.7, 190.7 202.1 Q 190.4 202.5, 189.9 202.8 Q 189.5 203.0, 188.9 203.0 Q 187.9 203.0, 187.3 202.5 Q 186.7 202.0, 186.7 201.2 Q 186.7 200.7, 187.0 200.4 Q 187.2 200.0, 187.7 199.7 Q 187.3 199.5, 187.1 199.2 Q 186.9 198.9, 186.9 198.3 Q 186.9 197.6, 187.4 197.2 Q 187.9 196.8, 188.8 196.8 Q 189.7 196.8, 190.2 197.2 Q 190.7 197.6, 190.7 198.3 Q 190.7 198.8, 190.5 199.1 Q 190.2 199.4, 189.8 199.7 M 188.8 197.4 Q 188.3 197.4, 188.0 197.7 Q 187.8 197.9, 187.8 198.3 Q 187.8 198.7, 188.0 198.9 Q 188.1 199.1, 188.4 199.2 Q 188.7 199.3, 189.2 199.5 Q 189.6 199.2, 189.7 199.0 Q 189.9 198.7, 189.9 198.3 Q 189.9 197.9, 189.6 197.7 Q 189.3 197.4, 188.8 197.4 M 188.9 202.3 Q 189.4 202.3, 189.8 202.0 Q 190.1 201.7, 190.1 201.2 Q 190.1 200.9, 189.9 200.7 Q 189.7 200.5, 189.5 200.4 Q 189.2 200.3, 188.7 200.1 L 188.3 200.0 Q 187.9 200.2, 187.7 200.5 Q 187.5 200.8, 187.5 201.2 Q 187.5 201.7, 187.9 202.0 Q 188.3 202.3, 188.9 202.3 " fill="#FF0000"/>
<path class="atom-19" d="M 208.6 189.5 Q 208.6 188.0, 209.3 187.2 Q 210.0 186.4, 211.4 186.4 Q 212.7 186.4, 213.4 187.2 Q 214.1 188.0, 214.1 189.5 Q 214.1 190.9, 213.4 191.7 Q 212.7 192.6, 211.4 192.6 Q 210.0 192.6, 209.3 191.7 Q 208.6 190.9, 208.6 189.5 M 211.4 191.9 Q 212.3 191.9, 212.8 191.3 Q 213.3 190.7, 213.3 189.5 Q 213.3 188.3, 212.8 187.7 Q 212.3 187.1, 211.4 187.1 Q 210.5 187.1, 210.0 187.7 Q 209.5 188.3, 209.5 189.5 Q 209.5 190.7, 210.0 191.3 Q 210.5 191.9, 211.4 191.9 " fill="#FF0000"/>
<path class="atom-19" d="M 214.9 191.5 L 215.7 191.5 L 215.7 192.3 L 214.9 192.3 L 214.9 191.5 M 214.9 188.6 L 215.7 188.6 L 215.7 189.4 L 214.9 189.4 L 214.9 188.6 " fill="#FF0000"/>
<path class="atom-19" d="M 217.1 191.8 L 218.4 191.8 L 218.4 187.3 L 216.9 187.8 L 216.7 187.3 L 218.6 186.4 L 219.2 186.5 L 219.2 191.8 L 220.4 191.8 L 220.4 192.5 L 217.1 192.5 L 217.1 191.8 " fill="#FF0000"/>
<path class="atom-19" d="M 223.1 186.4 Q 224.2 186.4, 224.7 187.1 Q 225.2 187.9, 225.2 189.3 Q 225.2 190.9, 224.6 191.7 Q 223.9 192.5, 222.6 192.5 Q 222.2 192.5, 221.9 192.5 Q 221.6 192.4, 221.3 192.2 L 221.6 191.6 Q 222.1 191.9, 222.6 191.9 Q 223.5 191.9, 223.9 191.3 Q 224.3 190.8, 224.4 189.6 Q 224.1 189.9, 223.7 190.1 Q 223.3 190.2, 222.9 190.2 Q 222.4 190.2, 221.9 190.0 Q 221.5 189.8, 221.3 189.4 Q 221.1 188.9, 221.1 188.4 Q 221.1 187.8, 221.3 187.4 Q 221.6 186.9, 222.0 186.7 Q 222.5 186.4, 223.1 186.4 M 221.9 188.4 Q 221.9 188.9, 222.2 189.2 Q 222.5 189.5, 223.0 189.5 Q 223.4 189.5, 223.8 189.4 Q 224.1 189.2, 224.4 189.0 Q 224.3 188.0, 224.0 187.6 Q 223.7 187.1, 223.1 187.1 Q 222.8 187.1, 222.5 187.3 Q 222.2 187.4, 222.1 187.7 Q 221.9 188.0, 221.9 188.4 " fill="#FF0000"/>
<path class="atom-20" d="M 228.2 174.2 Q 229.2 174.2, 229.7 174.7 Q 230.2 175.2, 230.2 176.0 Q 230.2 176.8, 229.7 177.3 Q 229.2 177.8, 228.2 177.8 L 227.2 177.8 L 227.2 180.2 L 226.4 180.2 L 226.4 174.2 L 228.2 174.2 M 228.2 177.1 Q 228.8 177.1, 229.1 176.8 Q 229.4 176.5, 229.4 176.0 Q 229.4 175.5, 229.1 175.2 Q 228.8 174.9, 228.2 174.9 L 227.2 174.9 L 227.2 177.1 L 228.2 177.1 " fill="#FF7F00"/>
<path class="atom-20" d="M 231.0 179.2 L 231.8 179.2 L 231.8 180.1 L 231.0 180.1 L 231.0 179.2 M 231.0 176.3 L 231.8 176.3 L 231.8 177.2 L 231.0 177.2 L 231.0 176.3 " fill="#FF7F00"/>
<path class="atom-20" d="M 232.8 175.4 Q 233.0 174.8, 233.5 174.5 Q 234.1 174.2, 234.8 174.2 Q 235.7 174.2, 236.2 174.7 Q 236.7 175.1, 236.7 176.0 Q 236.7 176.9, 236.0 177.7 Q 235.4 178.6, 234.0 179.6 L 236.8 179.6 L 236.8 180.2 L 232.8 180.2 L 232.8 179.7 Q 233.9 178.9, 234.5 178.3 Q 235.2 177.7, 235.5 177.1 Q 235.9 176.6, 235.9 176.1 Q 235.9 175.5, 235.6 175.2 Q 235.3 174.8, 234.8 174.8 Q 234.3 174.8, 234.0 175.0 Q 233.7 175.2, 233.4 175.7 L 232.8 175.4 " fill="#FF7F00"/>
<path class="atom-20" d="M 239.8 180.3 Q 238.7 180.3, 238.2 179.5 Q 237.6 178.7, 237.6 177.2 Q 237.6 175.8, 238.2 175.0 Q 238.7 174.2, 239.8 174.2 Q 240.9 174.2, 241.5 175.0 Q 242.0 175.8, 242.0 177.2 Q 242.0 178.7, 241.5 179.5 Q 240.9 180.3, 239.8 180.3 M 239.8 179.6 Q 240.5 179.6, 240.8 179.0 Q 241.2 178.4, 241.2 177.2 Q 241.2 176.0, 240.8 175.4 Q 240.5 174.8, 239.8 174.8 Q 239.2 174.8, 238.8 175.4 Q 238.5 176.0, 238.5 177.2 Q 238.5 178.4, 238.8 179.0 Q 239.2 179.6, 239.8 179.6 " fill="#FF7F00"/>
<path class="atom-21" d="M 243.7 194.5 Q 243.7 193.1, 244.4 192.3 Q 245.1 191.5, 246.5 191.5 Q 247.8 191.5, 248.5 192.3 Q 249.2 193.1, 249.2 194.5 Q 249.2 196.0, 248.5 196.8 Q 247.8 197.6, 246.5 197.6 Q 245.1 197.6, 244.4 196.8 Q 243.7 196.0, 243.7 194.5 M 246.5 196.9 Q 247.4 196.9, 247.9 196.3 Q 248.4 195.7, 248.4 194.5 Q 248.4 193.3, 247.9 192.7 Q 247.4 192.1, 246.5 192.1 Q 245.5 192.1, 245.0 192.7 Q 244.6 193.3, 244.6 194.5 Q 244.6 195.7, 245.0 196.3 Q 245.5 196.9, 246.5 196.9 " fill="#FF0000"/>
<path class="atom-21" d="M 250.0 196.5 L 250.8 196.5 L 250.8 197.4 L 250.0 197.4 L 250.0 196.5 M 250.0 193.6 L 250.8 193.6 L 250.8 194.5 L 250.0 194.5 L 250.0 193.6 " fill="#FF0000"/>
<path class="atom-21" d="M 251.8 192.7 Q 252.1 192.1, 252.6 191.8 Q 253.1 191.5, 253.8 191.5 Q 254.7 191.5, 255.3 191.9 Q 255.8 192.4, 255.8 193.3 Q 255.8 194.2, 255.1 195.0 Q 254.5 195.9, 253.1 196.8 L 255.9 196.8 L 255.9 197.5 L 251.8 197.5 L 251.8 197.0 Q 252.9 196.2, 253.6 195.6 Q 254.3 195.0, 254.6 194.4 Q 254.9 193.9, 254.9 193.4 Q 254.9 192.8, 254.6 192.5 Q 254.3 192.1, 253.8 192.1 Q 253.4 192.1, 253.0 192.3 Q 252.7 192.5, 252.5 193.0 L 251.8 192.7 " fill="#FF0000"/>
<path class="atom-21" d="M 257.1 196.8 L 258.4 196.8 L 258.4 192.4 L 256.9 192.8 L 256.7 192.3 L 258.6 191.5 L 259.2 191.6 L 259.2 196.8 L 260.3 196.8 L 260.3 197.5 L 257.1 197.5 L 257.1 196.8 " fill="#FF0000"/>
<path class="atom-22" d="M 219.2 159.9 Q 219.2 158.5, 219.9 157.7 Q 220.6 156.9, 222.0 156.9 Q 223.3 156.9, 224.0 157.7 Q 224.7 158.5, 224.7 159.9 Q 224.7 161.4, 224.0 162.2 Q 223.3 163.0, 222.0 163.0 Q 220.6 163.0, 219.9 162.2 Q 219.2 161.4, 219.2 159.9 M 222.0 162.4 Q 222.9 162.4, 223.4 161.7 Q 223.9 161.1, 223.9 159.9 Q 223.9 158.7, 223.4 158.2 Q 222.9 157.5, 222.0 157.5 Q 221.0 157.5, 220.5 158.1 Q 220.1 158.7, 220.1 159.9 Q 220.1 161.1, 220.5 161.7 Q 221.0 162.4, 222.0 162.4 " fill="#FF0000"/>
<path class="atom-22" d="M 225.5 161.9 L 226.4 161.9 L 226.4 162.8 L 225.5 162.8 L 225.5 161.9 M 225.5 159.0 L 226.4 159.0 L 226.4 159.9 L 225.5 159.9 L 225.5 159.0 " fill="#FF0000"/>
<path class="atom-22" d="M 227.4 158.1 Q 227.6 157.5, 228.2 157.2 Q 228.7 156.9, 229.4 156.9 Q 230.3 156.9, 230.8 157.4 Q 231.3 157.9, 231.3 158.7 Q 231.3 159.6, 230.7 160.4 Q 230.0 161.3, 228.7 162.3 L 231.4 162.3 L 231.4 162.9 L 227.4 162.9 L 227.4 162.4 Q 228.5 161.6, 229.2 161.0 Q 229.8 160.4, 230.2 159.9 Q 230.5 159.3, 230.5 158.8 Q 230.5 158.2, 230.2 157.9 Q 229.9 157.5, 229.4 157.5 Q 228.9 157.5, 228.6 157.7 Q 228.3 157.9, 228.1 158.4 L 227.4 158.1 " fill="#FF0000"/>
<path class="atom-22" d="M 232.3 158.1 Q 232.6 157.5, 233.1 157.2 Q 233.6 156.9, 234.3 156.9 Q 235.3 156.9, 235.8 157.4 Q 236.3 157.9, 236.3 158.7 Q 236.3 159.6, 235.6 160.4 Q 235.0 161.3, 233.6 162.3 L 236.4 162.3 L 236.4 162.9 L 232.3 162.9 L 232.3 162.4 Q 233.4 161.6, 234.1 161.0 Q 234.8 160.4, 235.1 159.9 Q 235.4 159.3, 235.4 158.8 Q 235.4 158.2, 235.1 157.9 Q 234.8 157.5, 234.3 157.5 Q 233.9 157.5, 233.5 157.7 Q 233.2 157.9, 233.0 158.4 L 232.3 158.1 " fill="#FF0000"/>
<path class="atom-22" d="M 237.3 156.9 L 238.1 156.9 L 238.1 159.5 L 241.1 159.5 L 241.1 156.9 L 242.0 156.9 L 242.0 162.9 L 241.1 162.9 L 241.1 160.2 L 238.1 160.2 L 238.1 162.9 L 237.3 162.9 L 237.3 156.9 " fill="#FF0000"/>
<path class="atom-23" d="M 248.7 165.0 Q 248.7 163.5, 249.5 162.7 Q 250.2 161.9, 251.5 161.9 Q 252.8 161.9, 253.5 162.7 Q 254.3 163.5, 254.3 165.0 Q 254.3 166.4, 253.5 167.3 Q 252.8 168.1, 251.5 168.1 Q 250.2 168.1, 249.5 167.3 Q 248.7 166.4, 248.7 165.0 M 251.5 167.4 Q 252.4 167.4, 252.9 166.8 Q 253.4 166.2, 253.4 165.0 Q 253.4 163.8, 252.9 163.2 Q 252.4 162.6, 251.5 162.6 Q 250.6 162.6, 250.1 163.2 Q 249.6 163.8, 249.6 165.0 Q 249.6 166.2, 250.1 166.8 Q 250.6 167.4, 251.5 167.4 " fill="#FF0000"/>
<path class="atom-23" d="M 255.0 167.0 L 255.9 167.0 L 255.9 167.8 L 255.0 167.8 L 255.0 167.0 M 255.0 164.1 L 255.9 164.1 L 255.9 164.9 L 255.0 164.9 L 255.0 164.1 " fill="#FF0000"/>
<path class="atom-23" d="M 256.9 163.1 Q 257.1 162.5, 257.7 162.2 Q 258.2 161.9, 258.9 161.9 Q 259.8 161.9, 260.3 162.4 Q 260.8 162.9, 260.8 163.8 Q 260.8 164.7, 260.2 165.5 Q 259.5 166.3, 258.2 167.3 L 260.9 167.3 L 260.9 168.0 L 256.9 168.0 L 256.9 167.4 Q 258.0 166.6, 258.7 166.0 Q 259.3 165.4, 259.7 164.9 Q 260.0 164.4, 260.0 163.8 Q 260.0 163.2, 259.7 162.9 Q 259.4 162.6, 258.9 162.6 Q 258.4 162.6, 258.1 162.8 Q 257.8 163.0, 257.5 163.4 L 256.9 163.1 " fill="#FF0000"/>
<path class="atom-23" d="M 264.7 164.8 Q 265.3 165.0, 265.5 165.4 Q 265.8 165.7, 265.8 166.3 Q 265.8 166.8, 265.6 167.2 Q 265.3 167.6, 264.9 167.9 Q 264.4 168.1, 263.8 168.1 Q 263.1 168.1, 262.7 167.8 Q 262.2 167.6, 261.8 167.2 L 262.3 166.7 Q 262.7 167.1, 263.0 167.2 Q 263.3 167.4, 263.8 167.4 Q 264.3 167.4, 264.7 167.1 Q 265.0 166.8, 265.0 166.3 Q 265.0 165.7, 264.6 165.4 Q 264.3 165.2, 263.6 165.2 L 263.1 165.2 L 263.1 164.6 L 263.5 164.6 Q 264.2 164.5, 264.5 164.3 Q 264.9 164.0, 264.9 163.4 Q 264.9 163.1, 264.6 162.8 Q 264.3 162.6, 263.8 162.6 Q 263.3 162.6, 263.0 162.8 Q 262.7 162.9, 262.4 163.4 L 261.9 163.1 Q 262.1 162.6, 262.6 162.3 Q 263.1 161.9, 263.8 161.9 Q 264.7 161.9, 265.2 162.3 Q 265.7 162.7, 265.7 163.4 Q 265.7 163.9, 265.4 164.3 Q 265.2 164.6, 264.7 164.8 " fill="#FF0000"/>
<path class="atom-24" d="M 243.4 140.9 Q 244.4 140.9, 244.9 141.3 Q 245.4 141.8, 245.4 142.6 Q 245.4 143.5, 244.9 144.0 Q 244.4 144.4, 243.4 144.4 L 242.4 144.4 L 242.4 146.9 L 241.6 146.9 L 241.6 140.9 L 243.4 140.9 M 243.4 143.7 Q 244.0 143.7, 244.3 143.5 Q 244.6 143.2, 244.6 142.6 Q 244.6 142.1, 244.3 141.8 Q 244.0 141.6, 243.4 141.6 L 242.4 141.6 L 242.4 143.7 L 243.4 143.7 " fill="#FF7F00"/>
<path class="atom-24" d="M 246.2 145.9 L 247.0 145.9 L 247.0 146.7 L 246.2 146.7 L 246.2 145.9 M 246.2 143.0 L 247.0 143.0 L 247.0 143.8 L 246.2 143.8 L 246.2 143.0 " fill="#FF7F00"/>
<path class="atom-24" d="M 248.0 142.0 Q 248.2 141.5, 248.7 141.1 Q 249.3 140.8, 250.0 140.8 Q 250.9 140.8, 251.4 141.3 Q 251.9 141.8, 251.9 142.7 Q 251.9 143.6, 251.3 144.4 Q 250.6 145.2, 249.3 146.2 L 252.0 146.2 L 252.0 146.9 L 248.0 146.9 L 248.0 146.3 Q 249.1 145.5, 249.8 144.9 Q 250.4 144.3, 250.8 143.8 Q 251.1 143.3, 251.1 142.7 Q 251.1 142.1, 250.8 141.8 Q 250.5 141.5, 250.0 141.5 Q 249.5 141.5, 249.2 141.7 Q 248.9 141.9, 248.6 142.3 L 248.0 142.0 " fill="#FF7F00"/>
<path class="atom-24" d="M 256.8 144.8 L 257.5 144.8 L 257.5 145.5 L 256.8 145.5 L 256.8 146.9 L 256.0 146.9 L 256.0 145.5 L 252.9 145.5 L 252.9 145.0 L 255.5 140.9 L 256.8 140.9 L 256.8 144.8 M 253.8 144.8 L 256.0 144.8 L 256.0 141.4 L 253.8 144.8 " fill="#FF7F00"/>
<path class="atom-25" d="M 267.9 141.9 Q 267.9 140.5, 268.6 139.7 Q 269.3 138.9, 270.6 138.9 Q 272.0 138.9, 272.7 139.7 Q 273.4 140.5, 273.4 141.9 Q 273.4 143.4, 272.7 144.2 Q 272.0 145.0, 270.6 145.0 Q 269.3 145.0, 268.6 144.2 Q 267.9 143.4, 267.9 141.9 M 270.6 144.3 Q 271.6 144.3, 272.0 143.7 Q 272.5 143.1, 272.5 141.9 Q 272.5 140.7, 272.0 140.1 Q 271.6 139.5, 270.6 139.5 Q 269.7 139.5, 269.2 140.1 Q 268.7 140.7, 268.7 141.9 Q 268.7 143.1, 269.2 143.7 Q 269.7 144.3, 270.6 144.3 " fill="#FF0000"/>
<path class="atom-25" d="M 274.2 143.9 L 275.0 143.9 L 275.0 144.8 L 274.2 144.8 L 274.2 143.9 M 274.2 141.0 L 275.0 141.0 L 275.0 141.9 L 274.2 141.9 L 274.2 141.0 " fill="#FF0000"/>
<path class="atom-25" d="M 276.0 140.1 Q 276.3 139.5, 276.8 139.2 Q 277.3 138.9, 278.0 138.9 Q 279.0 138.9, 279.5 139.3 Q 280.0 139.8, 280.0 140.7 Q 280.0 141.6, 279.3 142.4 Q 278.7 143.3, 277.3 144.2 L 280.1 144.2 L 280.1 144.9 L 276.0 144.9 L 276.0 144.4 Q 277.1 143.6, 277.8 143.0 Q 278.5 142.4, 278.8 141.8 Q 279.1 141.3, 279.1 140.8 Q 279.1 140.2, 278.8 139.9 Q 278.5 139.5, 278.0 139.5 Q 277.6 139.5, 277.2 139.7 Q 276.9 139.9, 276.7 140.4 L 276.0 140.1 " fill="#FF0000"/>
<path class="atom-25" d="M 283.1 141.2 Q 283.6 141.2, 284.1 141.4 Q 284.5 141.6, 284.8 142.0 Q 285.0 142.5, 285.0 143.0 Q 285.0 143.6, 284.7 144.1 Q 284.4 144.5, 283.9 144.8 Q 283.4 145.0, 282.9 145.0 Q 282.3 145.0, 281.8 144.8 Q 281.3 144.6, 280.9 144.2 L 281.4 143.7 Q 281.7 144.0, 282.1 144.1 Q 282.5 144.3, 282.9 144.3 Q 283.4 144.3, 283.8 144.0 Q 284.2 143.6, 284.2 143.0 Q 284.2 142.4, 283.8 142.1 Q 283.4 141.8, 282.8 141.8 Q 282.3 141.8, 281.7 142.0 L 281.3 141.8 L 281.5 138.9 L 284.6 138.9 L 284.5 139.6 L 282.2 139.6 L 282.1 141.4 Q 282.6 141.2, 283.1 141.2 " fill="#FF0000"/>
<path class="atom-26" d="M 207.4 142.8 L 208.3 142.8 L 208.3 145.4 L 211.3 145.4 L 211.3 142.8 L 212.1 142.8 L 212.1 148.8 L 211.3 148.8 L 211.3 146.1 L 208.3 146.1 L 208.3 148.8 L 207.4 148.8 L 207.4 142.8 " fill="#FF0000"/>
<path class="atom-26" d="M 213.2 145.8 Q 213.2 144.4, 214.0 143.6 Q 214.7 142.8, 216.0 142.8 Q 217.3 142.8, 218.0 143.6 Q 218.7 144.4, 218.7 145.8 Q 218.7 147.3, 218.0 148.1 Q 217.3 148.9, 216.0 148.9 Q 214.7 148.9, 214.0 148.1 Q 213.2 147.3, 213.2 145.8 M 216.0 148.3 Q 216.9 148.3, 217.4 147.6 Q 217.9 147.0, 217.9 145.8 Q 217.9 144.6, 217.4 144.1 Q 216.9 143.5, 216.0 143.5 Q 215.1 143.5, 214.6 144.0 Q 214.1 144.6, 214.1 145.8 Q 214.1 147.0, 214.6 147.6 Q 215.1 148.3, 216.0 148.3 " fill="#FF0000"/>
<path class="atom-26" d="M 219.6 147.9 L 220.4 147.9 L 220.4 148.7 L 219.6 148.7 L 219.6 147.9 M 219.6 144.9 L 220.4 144.9 L 220.4 145.8 L 219.6 145.8 L 219.6 144.9 " fill="#FF0000"/>
<path class="atom-26" d="M 221.4 144.0 Q 221.7 143.4, 222.2 143.1 Q 222.7 142.8, 223.4 142.8 Q 224.4 142.8, 224.9 143.3 Q 225.4 143.8, 225.4 144.6 Q 225.4 145.5, 224.7 146.4 Q 224.1 147.2, 222.7 148.2 L 225.5 148.2 L 225.5 148.8 L 221.4 148.8 L 221.4 148.3 Q 222.5 147.5, 223.2 146.9 Q 223.9 146.3, 224.2 145.8 Q 224.5 145.2, 224.5 144.7 Q 224.5 144.1, 224.2 143.8 Q 223.9 143.5, 223.4 143.5 Q 223.0 143.5, 222.6 143.6 Q 222.3 143.8, 222.1 144.3 L 221.4 144.0 " fill="#FF0000"/>
<path class="atom-26" d="M 228.7 145.1 Q 229.2 145.1, 229.7 145.3 Q 230.1 145.6, 230.3 146.0 Q 230.5 146.4, 230.5 146.9 Q 230.5 147.5, 230.3 148.0 Q 230.0 148.4, 229.6 148.7 Q 229.1 148.9, 228.5 148.9 Q 227.4 148.9, 226.9 148.2 Q 226.4 147.5, 226.4 146.0 Q 226.4 144.4, 227.0 143.6 Q 227.7 142.8, 229.0 142.8 Q 229.3 142.8, 229.7 142.9 Q 230.0 142.9, 230.3 143.1 L 230.0 143.7 Q 229.5 143.5, 229.0 143.5 Q 228.1 143.5, 227.7 144.0 Q 227.3 144.5, 227.2 145.7 Q 227.5 145.4, 227.9 145.3 Q 228.3 145.1, 228.7 145.1 M 228.5 148.2 Q 228.8 148.2, 229.1 148.0 Q 229.4 147.9, 229.5 147.6 Q 229.7 147.3, 229.7 146.9 Q 229.7 146.4, 229.4 146.1 Q 229.1 145.8, 228.6 145.8 Q 228.2 145.8, 227.8 145.9 Q 227.5 146.1, 227.2 146.3 Q 227.3 147.3, 227.6 147.8 Q 227.9 148.2, 228.5 148.2 " fill="#FF0000"/>
<path class="atom-27" d="M 244.8 122.8 Q 244.8 121.3, 245.5 120.5 Q 246.3 119.7, 247.6 119.7 Q 248.9 119.7, 249.6 120.5 Q 250.3 121.3, 250.3 122.8 Q 250.3 124.2, 249.6 125.1 Q 248.9 125.9, 247.6 125.9 Q 246.3 125.9, 245.5 125.1 Q 244.8 124.2, 244.8 122.8 M 247.6 125.2 Q 248.5 125.2, 249.0 124.6 Q 249.5 124.0, 249.5 122.8 Q 249.5 121.6, 249.0 121.0 Q 248.5 120.4, 247.6 120.4 Q 246.7 120.4, 246.2 121.0 Q 245.7 121.6, 245.7 122.8 Q 245.7 124.0, 246.2 124.6 Q 246.7 125.2, 247.6 125.2 " fill="#FF0000"/>
<path class="atom-27" d="M 251.1 124.8 L 252.0 124.8 L 252.0 125.6 L 251.1 125.6 L 251.1 124.8 M 251.1 121.9 L 252.0 121.9 L 252.0 122.7 L 251.1 122.7 L 251.1 121.9 " fill="#FF0000"/>
<path class="atom-27" d="M 253.0 120.9 Q 253.2 120.4, 253.8 120.0 Q 254.3 119.7, 255.0 119.7 Q 255.9 119.7, 256.4 120.2 Q 256.9 120.7, 256.9 121.6 Q 256.9 122.5, 256.3 123.3 Q 255.6 124.1, 254.3 125.1 L 257.0 125.1 L 257.0 125.8 L 253.0 125.8 L 253.0 125.2 Q 254.1 124.4, 254.8 123.8 Q 255.5 123.2, 255.8 122.7 Q 256.1 122.2, 256.1 121.6 Q 256.1 121.0, 255.8 120.7 Q 255.5 120.4, 255.0 120.4 Q 254.5 120.4, 254.2 120.6 Q 253.9 120.8, 253.7 121.2 L 253.0 120.9 " fill="#FF0000"/>
<path class="atom-27" d="M 261.1 120.5 L 257.9 120.5 L 257.9 119.8 L 261.9 119.8 L 261.9 120.4 L 259.5 125.8 L 258.7 125.8 L 261.1 120.5 " fill="#FF0000"/>
<path class="atom-27" d="M 262.6 119.8 L 263.4 119.8 L 263.4 122.3 L 266.4 122.3 L 266.4 119.8 L 267.2 119.8 L 267.2 125.8 L 266.4 125.8 L 266.4 123.0 L 263.4 123.0 L 263.4 125.8 L 262.6 125.8 L 262.6 119.8 " fill="#FF0000"/>
<path class="atom-28" d="M 164.7 105.5 Q 164.7 104.0, 165.4 103.2 Q 166.1 102.4, 167.4 102.4 Q 168.7 102.4, 169.5 103.2 Q 170.2 104.0, 170.2 105.5 Q 170.2 106.9, 169.4 107.7 Q 168.7 108.6, 167.4 108.6 Q 166.1 108.6, 165.4 107.7 Q 164.7 106.9, 164.7 105.5 M 167.4 107.9 Q 168.3 107.9, 168.8 107.3 Q 169.3 106.7, 169.3 105.5 Q 169.3 104.3, 168.8 103.7 Q 168.3 103.1, 167.4 103.1 Q 166.5 103.1, 166.0 103.7 Q 165.5 104.3, 165.5 105.5 Q 165.5 106.7, 166.0 107.3 Q 166.5 107.9, 167.4 107.9 " fill="#FF0000"/>
<path class="atom-28" d="M 171.0 107.5 L 171.8 107.5 L 171.8 108.3 L 171.0 108.3 L 171.0 107.5 M 171.0 104.6 L 171.8 104.6 L 171.8 105.4 L 171.0 105.4 L 171.0 104.6 " fill="#FF0000"/>
<path class="atom-28" d="M 172.9 103.6 Q 173.1 103.0, 173.6 102.7 Q 174.1 102.4, 174.9 102.4 Q 175.8 102.4, 176.3 102.9 Q 176.8 103.4, 176.8 104.3 Q 176.8 105.2, 176.1 106.0 Q 175.5 106.8, 174.1 107.8 L 176.9 107.8 L 176.9 108.5 L 172.8 108.5 L 172.8 107.9 Q 174.0 107.1, 174.6 106.5 Q 175.3 105.9, 175.6 105.4 Q 175.9 104.9, 175.9 104.3 Q 175.9 103.7, 175.7 103.4 Q 175.4 103.1, 174.9 103.1 Q 174.4 103.1, 174.1 103.3 Q 173.7 103.5, 173.5 103.9 L 172.9 103.6 " fill="#FF0000"/>
<path class="atom-28" d="M 180.8 105.3 Q 181.4 105.5, 181.7 105.9 Q 182.0 106.2, 182.0 106.8 Q 182.0 107.3, 181.8 107.7 Q 181.5 108.1, 181.0 108.3 Q 180.6 108.6, 179.9 108.6 Q 178.9 108.6, 178.4 108.1 Q 177.8 107.6, 177.8 106.8 Q 177.8 106.3, 178.0 106.0 Q 178.3 105.6, 178.8 105.3 Q 178.4 105.1, 178.2 104.8 Q 178.0 104.4, 178.0 103.9 Q 178.0 103.2, 178.5 102.8 Q 179.0 102.4, 179.9 102.4 Q 180.8 102.4, 181.3 102.8 Q 181.8 103.2, 181.8 103.9 Q 181.8 104.4, 181.6 104.7 Q 181.3 105.0, 180.8 105.3 M 179.9 103.0 Q 179.4 103.0, 179.1 103.3 Q 178.9 103.5, 178.9 103.9 Q 178.9 104.3, 179.0 104.5 Q 179.2 104.7, 179.5 104.8 Q 179.8 104.9, 180.3 105.1 Q 180.6 104.8, 180.8 104.6 Q 181.0 104.3, 181.0 103.9 Q 181.0 103.5, 180.7 103.3 Q 180.4 103.0, 179.9 103.0 M 179.9 107.9 Q 180.5 107.9, 180.8 107.6 Q 181.2 107.3, 181.2 106.8 Q 181.2 106.5, 181.0 106.3 Q 180.8 106.1, 180.5 106.0 Q 180.3 105.9, 179.8 105.7 L 179.4 105.6 Q 179.0 105.8, 178.8 106.1 Q 178.6 106.4, 178.6 106.8 Q 178.6 107.3, 179.0 107.6 Q 179.3 107.9, 179.9 107.9 " fill="#FF0000"/>
<path class="atom-28" d="M 182.9 102.5 L 183.8 102.5 L 183.8 105.0 L 186.8 105.0 L 186.8 102.5 L 187.6 102.5 L 187.6 108.5 L 186.8 108.5 L 186.8 105.7 L 183.8 105.7 L 183.8 108.5 L 182.9 108.5 L 182.9 102.5 " fill="#FF0000"/>
<path class="atom-29" d="M 100.6 97.1 L 101.4 97.1 L 101.4 99.7 L 104.5 99.7 L 104.5 97.1 L 105.3 97.1 L 105.3 103.1 L 104.5 103.1 L 104.5 100.3 L 101.4 100.3 L 101.4 103.1 L 100.6 103.1 L 100.6 97.1 " fill="#FF0000"/>
<path class="atom-29" d="M 106.4 100.1 Q 106.4 98.6, 107.1 97.8 Q 107.8 97.0, 109.2 97.0 Q 110.5 97.0, 111.2 97.8 Q 111.9 98.6, 111.9 100.1 Q 111.9 101.5, 111.2 102.4 Q 110.5 103.2, 109.2 103.2 Q 107.9 103.2, 107.1 102.4 Q 106.4 101.6, 106.4 100.1 M 109.2 102.5 Q 110.1 102.5, 110.6 101.9 Q 111.1 101.3, 111.1 100.1 Q 111.1 98.9, 110.6 98.3 Q 110.1 97.7, 109.2 97.7 Q 108.3 97.7, 107.8 98.3 Q 107.3 98.9, 107.3 100.1 Q 107.3 101.3, 107.8 101.9 Q 108.3 102.5, 109.2 102.5 " fill="#FF0000"/>
<path class="atom-29" d="M 112.7 102.1 L 113.6 102.1 L 113.6 103.0 L 112.7 103.0 L 112.7 102.1 M 112.7 99.2 L 113.6 99.2 L 113.6 100.0 L 112.7 100.0 L 112.7 99.2 " fill="#FF0000"/>
<path class="atom-29" d="M 114.6 98.2 Q 114.8 97.7, 115.4 97.4 Q 115.9 97.0, 116.6 97.0 Q 117.5 97.0, 118.0 97.5 Q 118.6 98.0, 118.6 98.9 Q 118.6 99.8, 117.9 100.6 Q 117.2 101.4, 115.9 102.4 L 118.7 102.4 L 118.7 103.1 L 114.6 103.1 L 114.6 102.5 Q 115.7 101.7, 116.4 101.1 Q 117.1 100.6, 117.4 100.0 Q 117.7 99.5, 117.7 98.9 Q 117.7 98.4, 117.4 98.0 Q 117.1 97.7, 116.6 97.7 Q 116.1 97.7, 115.8 97.9 Q 115.5 98.1, 115.3 98.5 L 114.6 98.2 " fill="#FF0000"/>
<path class="atom-29" d="M 121.6 97.0 Q 122.6 97.0, 123.2 97.8 Q 123.7 98.5, 123.7 99.9 Q 123.7 101.5, 123.0 102.3 Q 122.4 103.2, 121.1 103.2 Q 120.7 103.2, 120.4 103.1 Q 120.1 103.0, 119.8 102.8 L 120.1 102.3 Q 120.6 102.5, 121.1 102.5 Q 121.9 102.5, 122.4 102.0 Q 122.8 101.4, 122.9 100.3 Q 122.5 100.6, 122.2 100.7 Q 121.8 100.8, 121.4 100.8 Q 120.8 100.8, 120.4 100.6 Q 120.0 100.4, 119.8 100.0 Q 119.5 99.6, 119.5 99.0 Q 119.5 98.5, 119.8 98.0 Q 120.1 97.5, 120.5 97.3 Q 121.0 97.0, 121.6 97.0 M 120.4 99.0 Q 120.4 99.6, 120.7 99.9 Q 121.0 100.2, 121.5 100.2 Q 121.9 100.2, 122.2 100.0 Q 122.6 99.9, 122.9 99.6 Q 122.8 98.6, 122.5 98.2 Q 122.2 97.7, 121.6 97.7 Q 121.2 97.7, 121.0 97.9 Q 120.7 98.1, 120.5 98.4 Q 120.4 98.7, 120.4 99.0 " fill="#FF0000"/>
<path class="atom-30" d="M 15.0 170.3 L 15.8 170.3 L 15.8 172.8 L 18.9 172.8 L 18.9 170.3 L 19.7 170.3 L 19.7 176.3 L 18.9 176.3 L 18.9 173.5 L 15.8 173.5 L 15.8 176.3 L 15.0 176.3 L 15.0 170.3 " fill="#0000FF"/>
<path class="atom-30" d="M 20.8 176.1 Q 20.9 175.7, 21.3 175.5 Q 21.6 175.3, 22.1 175.3 Q 22.7 175.3, 23.1 175.6 Q 23.4 175.9, 23.4 176.5 Q 23.4 177.1, 23.0 177.7 Q 22.5 178.2, 21.6 178.9 L 23.5 178.9 L 23.5 179.3 L 20.8 179.3 L 20.8 178.9 Q 21.5 178.4, 22.0 178.0 Q 22.4 177.6, 22.6 177.3 Q 22.8 176.9, 22.8 176.5 Q 22.8 176.2, 22.6 176.0 Q 22.5 175.7, 22.1 175.7 Q 21.8 175.7, 21.6 175.9 Q 21.4 176.0, 21.2 176.3 L 20.8 176.1 " fill="#0000FF"/>
<path class="atom-30" d="M 25.1 170.3 L 27.1 173.5 Q 27.3 173.8, 27.6 174.4 Q 27.9 174.9, 27.9 175.0 L 27.9 170.3 L 28.7 170.3 L 28.7 176.3 L 27.9 176.3 L 25.8 172.8 Q 25.5 172.4, 25.3 171.9 Q 25.0 171.5, 25.0 171.3 L 25.0 176.3 L 24.2 176.3 L 24.2 170.3 L 25.1 170.3 " fill="#0000FF"/>
<path class="atom-30" d="M 29.8 175.3 L 30.7 175.3 L 30.7 176.2 L 29.8 176.2 L 29.8 175.3 M 29.8 172.4 L 30.7 172.4 L 30.7 173.2 L 29.8 173.2 L 29.8 172.4 " fill="#0000FF"/>
<path class="atom-30" d="M 34.5 173.1 Q 35.1 173.3, 35.4 173.7 Q 35.7 174.1, 35.7 174.7 Q 35.7 175.2, 35.4 175.6 Q 35.2 176.0, 34.7 176.2 Q 34.3 176.4, 33.6 176.4 Q 33.0 176.4, 32.5 176.2 Q 32.0 175.9, 31.7 175.5 L 32.1 175.0 Q 32.5 175.4, 32.8 175.6 Q 33.1 175.7, 33.6 175.7 Q 34.2 175.7, 34.5 175.4 Q 34.8 175.1, 34.8 174.6 Q 34.8 174.0, 34.5 173.8 Q 34.2 173.5, 33.4 173.5 L 33.0 173.5 L 33.0 172.9 L 33.4 172.9 Q 34.0 172.9, 34.4 172.6 Q 34.7 172.3, 34.7 171.8 Q 34.7 171.4, 34.4 171.1 Q 34.1 170.9, 33.7 170.9 Q 33.2 170.9, 32.8 171.1 Q 32.5 171.3, 32.3 171.7 L 31.7 171.4 Q 31.9 170.9, 32.4 170.6 Q 32.9 170.2, 33.7 170.2 Q 34.5 170.2, 35.1 170.6 Q 35.6 171.1, 35.6 171.8 Q 35.6 172.2, 35.3 172.6 Q 35.0 172.9, 34.5 173.1 " fill="#0000FF"/>
<path class="atom-30" d="M 38.8 176.4 Q 37.7 176.4, 37.1 175.6 Q 36.6 174.7, 36.6 173.3 Q 36.6 171.8, 37.1 171.0 Q 37.7 170.2, 38.8 170.2 Q 39.9 170.2, 40.4 171.0 Q 41.0 171.8, 41.0 173.3 Q 41.0 174.7, 40.4 175.6 Q 39.9 176.4, 38.8 176.4 M 38.8 175.7 Q 39.4 175.7, 39.8 175.1 Q 40.1 174.5, 40.1 173.3 Q 40.1 172.1, 39.8 171.5 Q 39.4 170.9, 38.8 170.9 Q 38.1 170.9, 37.8 171.5 Q 37.4 172.1, 37.4 173.3 Q 37.4 174.5, 37.8 175.1 Q 38.1 175.7, 38.8 175.7 " fill="#0000FF"/>
</svg>