<svg xmlns="http://www.w3.org/2000/svg" xmlns:rdkit="http://www.rdkit.org/xml" xmlns:xlink="http://www.w3.org/1999/xlink" version="1.1" baseProfile="full" xml:space="preserve" width="300px" height="300px" viewBox="0 0 300 300">
<!-- END OF HEADER -->
<rect style="opacity:1.0;fill:#FFFFFF;stroke:none" width="300.0" height="300.0" x="0.0" y="0.0"> </rect>
<path class="bond-29 atom-2 atom-30" d="M 31.0,172.8 L 53.8,175.5 L 53.2,180.3 L 30.4,177.6 Z" style="fill:#FF7F7F;fill-rule:evenodd;fill-opacity:1;stroke:#FF7F7F;stroke-width:0.0px;stroke-linecap:butt;stroke-linejoin:miter;stroke-miterlimit:10;stroke-opacity:1;"/>
<ellipse cx="53.5" cy="177.9" rx="4.6" ry="4.6" class="atom-2" style="fill:#FF7F7F;fill-rule:evenodd;stroke:#FF7F7F;stroke-width:1.0px;stroke-linecap:butt;stroke-linejoin:miter;stroke-opacity:1"/>
<ellipse cx="25.6" cy="176.8" rx="10.6" ry="6.9" class="atom-30" style="fill:#FF7F7F;fill-rule:evenodd;stroke:#FF7F7F;stroke-width:1.0px;stroke-linecap:butt;stroke-linejoin:miter;stroke-opacity:1"/>
<path class="bond-0 atom-0 atom-1" d="M 85.4,201.7 L 75.6,200.5" style="fill:none;fill-rule:evenodd;stroke:#000000;stroke-width:2.0px;stroke-linecap:butt;stroke-linejoin:miter;stroke-opacity:1"/>
<path class="bond-0 atom-0 atom-1" d="M 75.6,200.5 L 65.8,199.4" style="fill:none;fill-rule:evenodd;stroke:#0000FF;stroke-width:2.0px;stroke-linecap:butt;stroke-linejoin:miter;stroke-opacity:1"/>
<path class="bond-0 atom-0 atom-1" d="M 83.8,198.0 L 75.0,197.0" style="fill:none;fill-rule:evenodd;stroke:#000000;stroke-width:2.0px;stroke-linecap:butt;stroke-linejoin:miter;stroke-opacity:1"/>
<path class="bond-0 atom-0 atom-1" d="M 75.0,197.0 L 66.2,195.9" style="fill:none;fill-rule:evenodd;stroke:#0000FF;stroke-width:2.0px;stroke-linecap:butt;stroke-linejoin:miter;stroke-opacity:1"/>
<path class="bond-1 atom-1 atom-2" d="M 60.8,195.0 L 57.2,186.4" style="fill:none;fill-rule:evenodd;stroke:#0000FF;stroke-width:2.0px;stroke-linecap:butt;stroke-linejoin:miter;stroke-opacity:1"/>
<path class="bond-1 atom-1 atom-2" d="M 57.2,186.4 L 53.5,177.9" style="fill:none;fill-rule:evenodd;stroke:#000000;stroke-width:2.0px;stroke-linecap:butt;stroke-linejoin:miter;stroke-opacity:1"/>
<path class="bond-2 atom-2 atom-3" d="M 53.5,177.9 L 67.2,159.5" style="fill:none;fill-rule:evenodd;stroke:#000000;stroke-width:2.0px;stroke-linecap:butt;stroke-linejoin:miter;stroke-opacity:1"/>
<path class="bond-2 atom-2 atom-3" d="M 57.4,178.4 L 68.8,163.1" style="fill:none;fill-rule:evenodd;stroke:#000000;stroke-width:2.0px;stroke-linecap:butt;stroke-linejoin:miter;stroke-opacity:1"/>
<path class="bond-3 atom-3 atom-4" d="M 67.2,159.5 L 90.0,162.1" style="fill:none;fill-rule:evenodd;stroke:#000000;stroke-width:2.0px;stroke-linecap:butt;stroke-linejoin:miter;stroke-opacity:1"/>
<path class="bond-4 atom-4 atom-5" d="M 90.0,162.1 L 93.7,170.7" style="fill:none;fill-rule:evenodd;stroke:#000000;stroke-width:2.0px;stroke-linecap:butt;stroke-linejoin:miter;stroke-opacity:1"/>
<path class="bond-4 atom-4 atom-5" d="M 93.7,170.7 L 97.4,179.2" style="fill:none;fill-rule:evenodd;stroke:#0000FF;stroke-width:2.0px;stroke-linecap:butt;stroke-linejoin:miter;stroke-opacity:1"/>
<path class="bond-4 atom-4 atom-5" d="M 87.6,165.3 L 90.9,173.0" style="fill:none;fill-rule:evenodd;stroke:#000000;stroke-width:2.0px;stroke-linecap:butt;stroke-linejoin:miter;stroke-opacity:1"/>
<path class="bond-4 atom-4 atom-5" d="M 90.9,173.0 L 94.2,180.6" style="fill:none;fill-rule:evenodd;stroke:#0000FF;stroke-width:2.0px;stroke-linecap:butt;stroke-linejoin:miter;stroke-opacity:1"/>
<path class="bond-5 atom-4 atom-6" d="M 90.0,162.1 L 93.9,153.7" style="fill:none;fill-rule:evenodd;stroke:#000000;stroke-width:2.0px;stroke-linecap:butt;stroke-linejoin:miter;stroke-opacity:1"/>
<path class="bond-5 atom-4 atom-6" d="M 93.9,153.7 L 97.8,145.3" style="fill:none;fill-rule:evenodd;stroke:#0000FF;stroke-width:2.0px;stroke-linecap:butt;stroke-linejoin:miter;stroke-opacity:1"/>
<path class="bond-6 atom-6 atom-7" d="M 96.4,138.3 L 89.6,132.0" style="fill:none;fill-rule:evenodd;stroke:#0000FF;stroke-width:2.0px;stroke-linecap:butt;stroke-linejoin:miter;stroke-opacity:1"/>
<path class="bond-6 atom-6 atom-7" d="M 89.6,132.0 L 82.7,125.7" style="fill:none;fill-rule:evenodd;stroke:#000000;stroke-width:2.0px;stroke-linecap:butt;stroke-linejoin:miter;stroke-opacity:1"/>
<path class="bond-7 atom-7 atom-8" d="M 82.7,125.7 L 74.3,130.4" style="fill:none;fill-rule:evenodd;stroke:#000000;stroke-width:2.0px;stroke-linecap:butt;stroke-linejoin:miter;stroke-opacity:1"/>
<path class="bond-7 atom-7 atom-8" d="M 74.3,130.4 L 65.9,135.1" style="fill:none;fill-rule:evenodd;stroke:#0000FF;stroke-width:2.0px;stroke-linecap:butt;stroke-linejoin:miter;stroke-opacity:1"/>
<path class="bond-7 atom-7 atom-8" d="M 82.2,129.9 L 74.9,134.0" style="fill:none;fill-rule:evenodd;stroke:#000000;stroke-width:2.0px;stroke-linecap:butt;stroke-linejoin:miter;stroke-opacity:1"/>
<path class="bond-7 atom-7 atom-8" d="M 74.9,134.0 L 67.6,138.1" style="fill:none;fill-rule:evenodd;stroke:#0000FF;stroke-width:2.0px;stroke-linecap:butt;stroke-linejoin:miter;stroke-opacity:1"/>
<path class="bond-8 atom-9 atom-6" d="M 122.1,136.8 L 113.0,139.5 L 112.7,137.8 Z" style="fill:#000000;fill-rule:evenodd;fill-opacity:1;stroke:#000000;stroke-width:0.5px;stroke-linecap:butt;stroke-linejoin:miter;stroke-miterlimit:10;stroke-opacity:1;"/>
<path class="bond-8 atom-9 atom-6" d="M 113.0,139.5 L 103.3,138.8 L 103.9,142.2 Z" style="fill:#0000FF;fill-rule:evenodd;fill-opacity:1;stroke:#0000FF;stroke-width:0.5px;stroke-linecap:butt;stroke-linejoin:miter;stroke-miterlimit:10;stroke-opacity:1;"/>
<path class="bond-8 atom-9 atom-6" d="M 113.0,139.5 L 112.7,137.8 L 103.3,138.8 Z" style="fill:#0000FF;fill-rule:evenodd;fill-opacity:1;stroke:#0000FF;stroke-width:0.5px;stroke-linecap:butt;stroke-linejoin:miter;stroke-miterlimit:10;stroke-opacity:1;"/>
<path class="bond-9 atom-9 atom-10" d="M 122.1,136.8 L 131.7,115.9" style="fill:none;fill-rule:evenodd;stroke:#000000;stroke-width:2.0px;stroke-linecap:butt;stroke-linejoin:miter;stroke-opacity:1"/>
<path class="bond-10 atom-10 atom-11" d="M 131.7,115.9 L 154.5,118.6" style="fill:none;fill-rule:evenodd;stroke:#000000;stroke-width:2.0px;stroke-linecap:butt;stroke-linejoin:miter;stroke-opacity:1"/>
<path class="bond-11 atom-11 atom-12" d="M 154.5,118.6 L 159.0,141.1" style="fill:none;fill-rule:evenodd;stroke:#000000;stroke-width:2.0px;stroke-linecap:butt;stroke-linejoin:miter;stroke-opacity:1"/>
<path class="bond-12 atom-12 atom-13" d="M 159.0,141.1 L 150.9,145.7" style="fill:none;fill-rule:evenodd;stroke:#000000;stroke-width:2.0px;stroke-linecap:butt;stroke-linejoin:miter;stroke-opacity:1"/>
<path class="bond-12 atom-12 atom-13" d="M 150.9,145.7 L 142.8,150.2" style="fill:none;fill-rule:evenodd;stroke:#FF0000;stroke-width:2.0px;stroke-linecap:butt;stroke-linejoin:miter;stroke-opacity:1"/>
<path class="bond-13 atom-12 atom-14" d="M 159.0,141.1 L 179.7,148.8 L 180.1,152.8 Z" style="fill:#000000;fill-rule:evenodd;fill-opacity:1;stroke:#000000;stroke-width:0.5px;stroke-linecap:butt;stroke-linejoin:miter;stroke-miterlimit:10;stroke-opacity:1;"/>
<path class="bond-14 atom-14 atom-15" d="M 179.7,148.8 L 180.8,160.1" style="fill:none;fill-rule:evenodd;stroke:#000000;stroke-width:2.0px;stroke-linecap:butt;stroke-linejoin:miter;stroke-opacity:1"/>
<path class="bond-14 atom-14 atom-15" d="M 180.8,160.1 L 181.7,169.5" style="fill:none;fill-rule:evenodd;stroke:#FF0000;stroke-width:2.0px;stroke-linecap:butt;stroke-linejoin:miter;stroke-opacity:1"/>
<path class="bond-15 atom-15 atom-16" d="M 185.8,175.3 L 192.9,178.6" style="fill:none;fill-rule:evenodd;stroke:#FF0000;stroke-width:2.0px;stroke-linecap:butt;stroke-linejoin:miter;stroke-opacity:1"/>
<path class="bond-15 atom-15 atom-16" d="M 192.9,178.6 L 200.1,181.9" style="fill:none;fill-rule:evenodd;stroke:#FF7F00;stroke-width:2.0px;stroke-linecap:butt;stroke-linejoin:miter;stroke-opacity:1"/>
<path class="bond-16 atom-16 atom-17" d="M 206.3,179.9 L 209.2,173.5" style="fill:none;fill-rule:evenodd;stroke:#FF7F00;stroke-width:2.0px;stroke-linecap:butt;stroke-linejoin:miter;stroke-opacity:1"/>
<path class="bond-16 atom-16 atom-17" d="M 209.2,173.5 L 212.2,167.2" style="fill:none;fill-rule:evenodd;stroke:#FF0000;stroke-width:2.0px;stroke-linecap:butt;stroke-linejoin:miter;stroke-opacity:1"/>
<path class="bond-16 atom-16 atom-17" d="M 203.2,178.4 L 206.1,172.1" style="fill:none;fill-rule:evenodd;stroke:#FF7F00;stroke-width:2.0px;stroke-linecap:butt;stroke-linejoin:miter;stroke-opacity:1"/>
<path class="bond-16 atom-16 atom-17" d="M 206.1,172.1 L 209.0,165.7" style="fill:none;fill-rule:evenodd;stroke:#FF0000;stroke-width:2.0px;stroke-linecap:butt;stroke-linejoin:miter;stroke-opacity:1"/>
<path class="bond-17 atom-16 atom-18" d="M 201.1,187.2 L 198.1,193.6" style="fill:none;fill-rule:evenodd;stroke:#FF7F00;stroke-width:2.0px;stroke-linecap:butt;stroke-linejoin:miter;stroke-opacity:1"/>
<path class="bond-17 atom-16 atom-18" d="M 198.1,193.6 L 195.2,200.0" style="fill:none;fill-rule:evenodd;stroke:#FF0000;stroke-width:2.0px;stroke-linecap:butt;stroke-linejoin:miter;stroke-opacity:1"/>
<path class="bond-18 atom-16 atom-19" d="M 205.7,184.5 L 212.9,187.7" style="fill:none;fill-rule:evenodd;stroke:#FF7F00;stroke-width:2.0px;stroke-linecap:butt;stroke-linejoin:miter;stroke-opacity:1"/>
<path class="bond-18 atom-16 atom-19" d="M 212.9,187.7 L 220.0,191.0" style="fill:none;fill-rule:evenodd;stroke:#FF0000;stroke-width:2.0px;stroke-linecap:butt;stroke-linejoin:miter;stroke-opacity:1"/>
<path class="bond-19 atom-19 atom-20" d="M 227.5,190.1 L 233.6,185.8" style="fill:none;fill-rule:evenodd;stroke:#FF0000;stroke-width:2.0px;stroke-linecap:butt;stroke-linejoin:miter;stroke-opacity:1"/>
<path class="bond-19 atom-19 atom-20" d="M 233.6,185.8 L 239.7,181.5" style="fill:none;fill-rule:evenodd;stroke:#FF7F00;stroke-width:2.0px;stroke-linecap:butt;stroke-linejoin:miter;stroke-opacity:1"/>
<path class="bond-20 atom-20 atom-21" d="M 244.0,184.5 L 247.7,189.8" style="fill:none;fill-rule:evenodd;stroke:#FF7F00;stroke-width:2.0px;stroke-linecap:butt;stroke-linejoin:miter;stroke-opacity:1"/>
<path class="bond-20 atom-20 atom-21" d="M 247.7,189.8 L 251.5,195.2" style="fill:none;fill-rule:evenodd;stroke:#FF0000;stroke-width:2.0px;stroke-linecap:butt;stroke-linejoin:miter;stroke-opacity:1"/>
<path class="bond-20 atom-20 atom-21" d="M 246.8,182.5 L 250.6,187.8" style="fill:none;fill-rule:evenodd;stroke:#FF7F00;stroke-width:2.0px;stroke-linecap:butt;stroke-linejoin:miter;stroke-opacity:1"/>
<path class="bond-20 atom-20 atom-21" d="M 250.6,187.8 L 254.3,193.2" style="fill:none;fill-rule:evenodd;stroke:#FF0000;stroke-width:2.0px;stroke-linecap:butt;stroke-linejoin:miter;stroke-opacity:1"/>
<path class="bond-21 atom-20 atom-22" d="M 239.7,175.5 L 235.9,170.2" style="fill:none;fill-rule:evenodd;stroke:#FF7F00;stroke-width:2.0px;stroke-linecap:butt;stroke-linejoin:miter;stroke-opacity:1"/>
<path class="bond-21 atom-20 atom-22" d="M 235.9,170.2 L 232.2,164.9" style="fill:none;fill-rule:evenodd;stroke:#FF0000;stroke-width:2.0px;stroke-linecap:butt;stroke-linejoin:miter;stroke-opacity:1"/>
<path class="bond-22 atom-20 atom-23" d="M 245.4,177.5 L 251.4,173.2" style="fill:none;fill-rule:evenodd;stroke:#FF7F00;stroke-width:2.0px;stroke-linecap:butt;stroke-linejoin:miter;stroke-opacity:1"/>
<path class="bond-22 atom-20 atom-23" d="M 251.4,173.2 L 257.5,168.9" style="fill:none;fill-rule:evenodd;stroke:#FF0000;stroke-width:2.0px;stroke-linecap:butt;stroke-linejoin:miter;stroke-opacity:1"/>
<path class="bond-23 atom-23 atom-24" d="M 260.9,162.2 L 260.2,154.7" style="fill:none;fill-rule:evenodd;stroke:#FF0000;stroke-width:2.0px;stroke-linecap:butt;stroke-linejoin:miter;stroke-opacity:1"/>
<path class="bond-23 atom-23 atom-24" d="M 260.2,154.7 L 259.5,147.3" style="fill:none;fill-rule:evenodd;stroke:#FF7F00;stroke-width:2.0px;stroke-linecap:butt;stroke-linejoin:miter;stroke-opacity:1"/>
<path class="bond-24 atom-24 atom-25" d="M 262.1,144.8 L 270.3,144.0" style="fill:none;fill-rule:evenodd;stroke:#FF7F00;stroke-width:2.0px;stroke-linecap:butt;stroke-linejoin:miter;stroke-opacity:1"/>
<path class="bond-24 atom-24 atom-25" d="M 270.3,144.0 L 278.4,143.3" style="fill:none;fill-rule:evenodd;stroke:#FF0000;stroke-width:2.0px;stroke-linecap:butt;stroke-linejoin:miter;stroke-opacity:1"/>
<path class="bond-24 atom-24 atom-25" d="M 261.8,141.3 L 270.0,140.6" style="fill:none;fill-rule:evenodd;stroke:#FF7F00;stroke-width:2.0px;stroke-linecap:butt;stroke-linejoin:miter;stroke-opacity:1"/>
<path class="bond-24 atom-24 atom-25" d="M 270.0,140.6 L 278.1,139.8" style="fill:none;fill-rule:evenodd;stroke:#FF0000;stroke-width:2.0px;stroke-linecap:butt;stroke-linejoin:miter;stroke-opacity:1"/>
<path class="bond-25 atom-24 atom-26" d="M 256.3,143.6 L 248.2,144.3" style="fill:none;fill-rule:evenodd;stroke:#FF7F00;stroke-width:2.0px;stroke-linecap:butt;stroke-linejoin:miter;stroke-opacity:1"/>
<path class="bond-25 atom-24 atom-26" d="M 248.2,144.3 L 240.0,145.1" style="fill:none;fill-rule:evenodd;stroke:#FF0000;stroke-width:2.0px;stroke-linecap:butt;stroke-linejoin:miter;stroke-opacity:1"/>
<path class="bond-26 atom-24 atom-27" d="M 258.8,139.3 L 258.1,132.0" style="fill:none;fill-rule:evenodd;stroke:#FF7F00;stroke-width:2.0px;stroke-linecap:butt;stroke-linejoin:miter;stroke-opacity:1"/>
<path class="bond-26 atom-24 atom-27" d="M 258.1,132.0 L 257.4,124.6" style="fill:none;fill-rule:evenodd;stroke:#FF0000;stroke-width:2.0px;stroke-linecap:butt;stroke-linejoin:miter;stroke-opacity:1"/>
<path class="bond-27 atom-11 atom-28" d="M 156.5,115.9 L 157.0,116.4" style="fill:none;fill-rule:evenodd;stroke:#000000;stroke-width:1.0px;stroke-linecap:butt;stroke-linejoin:miter;stroke-opacity:1"/>
<path class="bond-27 atom-11 atom-28" d="M 158.5,113.3 L 159.5,114.2" style="fill:none;fill-rule:evenodd;stroke:#000000;stroke-width:1.0px;stroke-linecap:butt;stroke-linejoin:miter;stroke-opacity:1"/>
<path class="bond-27 atom-11 atom-28" d="M 160.4,110.7 L 161.9,112.1" style="fill:none;fill-rule:evenodd;stroke:#FF0000;stroke-width:1.0px;stroke-linecap:butt;stroke-linejoin:miter;stroke-opacity:1"/>
<path class="bond-27 atom-11 atom-28" d="M 162.4,108.0 L 164.4,109.9" style="fill:none;fill-rule:evenodd;stroke:#FF0000;stroke-width:1.0px;stroke-linecap:butt;stroke-linejoin:miter;stroke-opacity:1"/>
<path class="bond-27 atom-11 atom-28" d="M 164.3,105.4 L 166.9,107.7" style="fill:none;fill-rule:evenodd;stroke:#FF0000;stroke-width:1.0px;stroke-linecap:butt;stroke-linejoin:miter;stroke-opacity:1"/>
<path class="bond-28 atom-10 atom-29" d="M 129.7,113.0 L 130.3,112.7" style="fill:none;fill-rule:evenodd;stroke:#000000;stroke-width:1.0px;stroke-linecap:butt;stroke-linejoin:miter;stroke-opacity:1"/>
<path class="bond-28 atom-10 atom-29" d="M 127.7,110.2 L 128.9,109.5" style="fill:none;fill-rule:evenodd;stroke:#000000;stroke-width:1.0px;stroke-linecap:butt;stroke-linejoin:miter;stroke-opacity:1"/>
<path class="bond-28 atom-10 atom-29" d="M 125.7,107.3 L 127.5,106.3" style="fill:none;fill-rule:evenodd;stroke:#FF0000;stroke-width:1.0px;stroke-linecap:butt;stroke-linejoin:miter;stroke-opacity:1"/>
<path class="bond-28 atom-10 atom-29" d="M 123.7,104.5 L 126.1,103.1" style="fill:none;fill-rule:evenodd;stroke:#FF0000;stroke-width:1.0px;stroke-linecap:butt;stroke-linejoin:miter;stroke-opacity:1"/>
<path class="bond-28 atom-10 atom-29" d="M 121.7,101.6 L 124.7,99.9" style="fill:none;fill-rule:evenodd;stroke:#FF0000;stroke-width:1.0px;stroke-linecap:butt;stroke-linejoin:miter;stroke-opacity:1"/>
<path class="bond-29 atom-2 atom-30" d="M 53.5,177.9 L 33.9,175.6" style="fill:none;fill-rule:evenodd;stroke:#000000;stroke-width:2.0px;stroke-linecap:butt;stroke-linejoin:miter;stroke-opacity:1"/>
<path class="bond-30 atom-5 atom-0" d="M 96.1,187.2 L 90.7,194.5" style="fill:none;fill-rule:evenodd;stroke:#0000FF;stroke-width:2.0px;stroke-linecap:butt;stroke-linejoin:miter;stroke-opacity:1"/>
<path class="bond-30 atom-5 atom-0" d="M 90.7,194.5 L 85.4,201.7" style="fill:none;fill-rule:evenodd;stroke:#000000;stroke-width:2.0px;stroke-linecap:butt;stroke-linejoin:miter;stroke-opacity:1"/>
<path class="bond-31 atom-8 atom-3" d="M 63.5,141.0 L 65.4,150.2" style="fill:none;fill-rule:evenodd;stroke:#0000FF;stroke-width:2.0px;stroke-linecap:butt;stroke-linejoin:miter;stroke-opacity:1"/>
<path class="bond-31 atom-8 atom-3" d="M 65.4,150.2 L 67.2,159.5" style="fill:none;fill-rule:evenodd;stroke:#000000;stroke-width:2.0px;stroke-linecap:butt;stroke-linejoin:miter;stroke-opacity:1"/>
<path class="bond-32 atom-13 atom-9" d="M 135.3,148.9 L 128.7,142.8" style="fill:none;fill-rule:evenodd;stroke:#FF0000;stroke-width:2.0px;stroke-linecap:butt;stroke-linejoin:miter;stroke-opacity:1"/>
<path class="bond-32 atom-13 atom-9" d="M 128.7,142.8 L 122.1,136.8" style="fill:none;fill-rule:evenodd;stroke:#000000;stroke-width:2.0px;stroke-linecap:butt;stroke-linejoin:miter;stroke-opacity:1"/>
<path d="M 84.9,201.6 L 85.4,201.7 L 85.7,201.3" style="fill:none;stroke:#000000;stroke-width:2.0px;stroke-linecap:butt;stroke-linejoin:miter;stroke-miterlimit:10;stroke-opacity:1;"/>
<path d="M 83.1,126.0 L 82.7,125.7 L 82.3,125.9" style="fill:none;stroke:#000000;stroke-width:2.0px;stroke-linecap:butt;stroke-linejoin:miter;stroke-miterlimit:10;stroke-opacity:1;"/>
<path d="M 122.6,135.7 L 122.1,136.8 L 122.5,137.1" style="fill:none;stroke:#000000;stroke-width:2.0px;stroke-linecap:butt;stroke-linejoin:miter;stroke-miterlimit:10;stroke-opacity:1;"/>
<path d="M 131.2,116.9 L 131.7,115.9 L 132.9,116.0" style="fill:none;stroke:#000000;stroke-width:2.0px;stroke-linecap:butt;stroke-linejoin:miter;stroke-miterlimit:10;stroke-opacity:1;"/>
<path d="M 153.4,118.4 L 154.5,118.6 L 154.8,119.7" style="fill:none;stroke:#000000;stroke-width:2.0px;stroke-linecap:butt;stroke-linejoin:miter;stroke-miterlimit:10;stroke-opacity:1;"/>
<path d="M 158.8,140.0 L 159.0,141.1 L 158.6,141.3" style="fill:none;stroke:#000000;stroke-width:2.0px;stroke-linecap:butt;stroke-linejoin:miter;stroke-miterlimit:10;stroke-opacity:1;"/>
<path class="atom-1" d="M 61.1 195.7 L 63.3 199.2 Q 63.5 199.5, 63.8 200.1 Q 64.2 200.7, 64.2 200.8 L 64.2 195.7 L 65.0 195.7 L 65.0 202.2 L 64.1 202.2 L 61.9 198.5 Q 61.6 198.0, 61.3 197.5 Q 61.0 197.0, 60.9 196.9 L 60.9 202.2 L 60.1 202.2 L 60.1 195.7 L 61.1 195.7 " fill="#0000FF"/>
<path class="atom-5" d="M 97.7 180.0 L 99.8 183.4 Q 100.0 183.8, 100.4 184.4 Q 100.7 185.0, 100.7 185.0 L 100.7 180.0 L 101.6 180.0 L 101.6 186.5 L 100.7 186.5 L 98.4 182.7 Q 98.1 182.3, 97.8 181.8 Q 97.6 181.3, 97.5 181.1 L 97.5 186.5 L 96.6 186.5 L 96.6 180.0 L 97.7 180.0 " fill="#0000FF"/>
<path class="atom-6" d="M 98.2 138.0 L 100.3 141.5 Q 100.5 141.8, 100.9 142.4 Q 101.2 143.0, 101.2 143.1 L 101.2 138.0 L 102.1 138.0 L 102.1 144.5 L 101.2 144.5 L 98.9 140.8 Q 98.6 140.3, 98.3 139.8 Q 98.1 139.3, 98.0 139.2 L 98.0 144.5 L 97.1 144.5 L 97.1 138.0 L 98.2 138.0 " fill="#0000FF"/>
<path class="atom-8" d="M 61.3 133.7 L 63.4 137.1 Q 63.6 137.5, 63.9 138.1 Q 64.3 138.7, 64.3 138.7 L 64.3 133.7 L 65.2 133.7 L 65.2 140.2 L 64.3 140.2 L 62.0 136.4 Q 61.7 136.0, 61.4 135.5 Q 61.2 135.0, 61.1 134.8 L 61.1 140.2 L 60.2 140.2 L 60.2 133.7 L 61.3 133.7 " fill="#0000FF"/>
<path class="atom-13" d="M 136.0 152.4 Q 136.0 150.8, 136.8 149.9 Q 137.6 149.1, 139.0 149.1 Q 140.5 149.1, 141.2 149.9 Q 142.0 150.8, 142.0 152.4 Q 142.0 153.9, 141.2 154.8 Q 140.4 155.7, 139.0 155.7 Q 137.6 155.7, 136.8 154.8 Q 136.0 154.0, 136.0 152.4 M 139.0 155.0 Q 140.0 155.0, 140.5 154.3 Q 141.1 153.7, 141.1 152.4 Q 141.1 151.1, 140.5 150.4 Q 140.0 149.8, 139.0 149.8 Q 138.0 149.8, 137.5 150.4 Q 136.9 151.1, 136.9 152.4 Q 136.9 153.7, 137.5 154.3 Q 138.0 155.0, 139.0 155.0 " fill="#FF0000"/>
<path class="atom-15" d="M 179.1 173.6 Q 179.1 172.0, 179.8 171.1 Q 180.6 170.3, 182.0 170.3 Q 183.5 170.3, 184.3 171.1 Q 185.0 172.0, 185.0 173.6 Q 185.0 175.2, 184.2 176.1 Q 183.5 177.0, 182.0 177.0 Q 180.6 177.0, 179.8 176.1 Q 179.1 175.2, 179.1 173.6 M 182.0 176.2 Q 183.0 176.2, 183.6 175.6 Q 184.1 174.9, 184.1 173.6 Q 184.1 172.3, 183.6 171.7 Q 183.0 171.0, 182.0 171.0 Q 181.0 171.0, 180.5 171.7 Q 180.0 172.3, 180.0 173.6 Q 180.0 174.9, 180.5 175.6 Q 181.0 176.2, 182.0 176.2 " fill="#FF0000"/>
<path class="atom-16" d="M 202.8 179.9 Q 203.9 179.9, 204.4 180.4 Q 205.0 180.9, 205.0 181.8 Q 205.0 182.7, 204.4 183.2 Q 203.8 183.7, 202.8 183.7 L 201.7 183.7 L 201.7 186.4 L 200.8 186.4 L 200.8 179.9 L 202.8 179.9 M 202.8 183.0 Q 203.4 183.0, 203.7 182.7 Q 204.1 182.4, 204.1 181.8 Q 204.1 181.2, 203.7 180.9 Q 203.4 180.6, 202.8 180.6 L 201.7 180.6 L 201.7 183.0 L 202.8 183.0 " fill="#FF7F00"/>
<path class="atom-17" d="M 209.5 162.3 Q 209.5 160.7, 210.3 159.9 Q 211.1 159.0, 212.5 159.0 Q 213.9 159.0, 214.7 159.9 Q 215.5 160.7, 215.5 162.3 Q 215.5 163.9, 214.7 164.8 Q 213.9 165.7, 212.5 165.7 Q 211.1 165.7, 210.3 164.8 Q 209.5 163.9, 209.5 162.3 M 212.5 164.9 Q 213.5 164.9, 214.0 164.3 Q 214.6 163.6, 214.6 162.3 Q 214.6 161.0, 214.0 160.4 Q 213.5 159.7, 212.5 159.7 Q 211.5 159.7, 211.0 160.4 Q 210.4 161.0, 210.4 162.3 Q 210.4 163.6, 211.0 164.3 Q 211.5 164.9, 212.5 164.9 " fill="#FF0000"/>
<path class="atom-18" d="M 183.9 200.8 L 184.8 200.8 L 184.8 203.6 L 188.1 203.6 L 188.1 200.8 L 189.0 200.8 L 189.0 207.3 L 188.1 207.3 L 188.1 204.3 L 184.8 204.3 L 184.8 207.3 L 183.9 207.3 L 183.9 200.8 " fill="#FF0000"/>
<path class="atom-18" d="M 190.3 204.0 Q 190.3 202.5, 191.1 201.6 Q 191.9 200.7, 193.3 200.7 Q 194.8 200.7, 195.5 201.6 Q 196.3 202.5, 196.3 204.0 Q 196.3 205.6, 195.5 206.5 Q 194.7 207.4, 193.3 207.4 Q 191.9 207.4, 191.1 206.5 Q 190.3 205.6, 190.3 204.0 M 193.3 206.7 Q 194.3 206.7, 194.8 206.0 Q 195.4 205.4, 195.4 204.0 Q 195.4 202.8, 194.8 202.1 Q 194.3 201.5, 193.3 201.5 Q 192.3 201.5, 191.8 202.1 Q 191.3 202.8, 191.3 204.0 Q 191.3 205.4, 191.8 206.0 Q 192.3 206.7, 193.3 206.7 " fill="#FF0000"/>
<path class="atom-19" d="M 220.8 192.8 Q 220.8 191.2, 221.6 190.3 Q 222.3 189.5, 223.8 189.5 Q 225.2 189.5, 226.0 190.3 Q 226.8 191.2, 226.8 192.8 Q 226.8 194.4, 226.0 195.3 Q 225.2 196.1, 223.8 196.1 Q 222.3 196.1, 221.6 195.3 Q 220.8 194.4, 220.8 192.8 M 223.8 195.4 Q 224.8 195.4, 225.3 194.7 Q 225.8 194.1, 225.8 192.8 Q 225.8 191.5, 225.3 190.9 Q 224.8 190.2, 223.8 190.2 Q 222.8 190.2, 222.2 190.8 Q 221.7 191.5, 221.7 192.8 Q 221.7 194.1, 222.2 194.7 Q 222.8 195.4, 223.8 195.4 " fill="#FF0000"/>
<path class="atom-20" d="M 242.4 176.2 Q 243.5 176.2, 244.0 176.7 Q 244.6 177.2, 244.6 178.1 Q 244.6 179.0, 244.0 179.5 Q 243.5 180.1, 242.4 180.1 L 241.3 180.1 L 241.3 182.7 L 240.4 182.7 L 240.4 176.2 L 242.4 176.2 M 242.4 179.3 Q 243.0 179.3, 243.3 179.0 Q 243.7 178.7, 243.7 178.1 Q 243.7 177.6, 243.3 177.3 Q 243.0 177.0, 242.4 177.0 L 241.3 177.0 L 241.3 179.3 L 242.4 179.3 " fill="#FF7F00"/>
<path class="atom-21" d="M 252.8 198.2 Q 252.8 196.7, 253.6 195.8 Q 254.4 194.9, 255.8 194.9 Q 257.2 194.9, 258.0 195.8 Q 258.8 196.7, 258.8 198.2 Q 258.8 199.8, 258.0 200.7 Q 257.2 201.6, 255.8 201.6 Q 254.4 201.6, 253.6 200.7 Q 252.8 199.8, 252.8 198.2 M 255.8 200.9 Q 256.8 200.9, 257.3 200.2 Q 257.9 199.5, 257.9 198.2 Q 257.9 197.0, 257.3 196.3 Q 256.8 195.7, 255.8 195.7 Q 254.8 195.7, 254.3 196.3 Q 253.7 197.0, 253.7 198.2 Q 253.7 199.6, 254.3 200.2 Q 254.8 200.9, 255.8 200.9 " fill="#FF0000"/>
<path class="atom-22" d="M 219.8 157.5 L 220.7 157.5 L 220.7 160.3 L 224.0 160.3 L 224.0 157.5 L 224.9 157.5 L 224.9 164.0 L 224.0 164.0 L 224.0 161.0 L 220.7 161.0 L 220.7 164.0 L 219.8 164.0 L 219.8 157.5 " fill="#FF0000"/>
<path class="atom-22" d="M 226.3 160.8 Q 226.3 159.2, 227.0 158.3 Q 227.8 157.4, 229.2 157.4 Q 230.7 157.4, 231.5 158.3 Q 232.2 159.2, 232.2 160.8 Q 232.2 162.3, 231.5 163.2 Q 230.7 164.1, 229.2 164.1 Q 227.8 164.1, 227.0 163.2 Q 226.3 162.3, 226.3 160.8 M 229.2 163.4 Q 230.2 163.4, 230.8 162.7 Q 231.3 162.1, 231.3 160.8 Q 231.3 159.5, 230.8 158.8 Q 230.2 158.2, 229.2 158.2 Q 228.3 158.2, 227.7 158.8 Q 227.2 159.5, 227.2 160.8 Q 227.2 162.1, 227.7 162.7 Q 228.3 163.4, 229.2 163.4 " fill="#FF0000"/>
<path class="atom-23" d="M 258.3 166.2 Q 258.3 164.7, 259.1 163.8 Q 259.8 162.9, 261.3 162.9 Q 262.7 162.9, 263.5 163.8 Q 264.3 164.7, 264.3 166.2 Q 264.3 167.8, 263.5 168.7 Q 262.7 169.6, 261.3 169.6 Q 259.8 169.6, 259.1 168.7 Q 258.3 167.8, 258.3 166.2 M 261.3 168.9 Q 262.3 168.9, 262.8 168.2 Q 263.3 167.5, 263.3 166.2 Q 263.3 164.9, 262.8 164.3 Q 262.3 163.6, 261.3 163.6 Q 260.3 163.6, 259.7 164.3 Q 259.2 164.9, 259.2 166.2 Q 259.2 167.5, 259.7 168.2 Q 260.3 168.9, 261.3 168.9 " fill="#FF0000"/>
<path class="atom-24" d="M 259.0 140.1 Q 260.1 140.1, 260.7 140.6 Q 261.2 141.1, 261.2 142.0 Q 261.2 142.9, 260.6 143.4 Q 260.1 143.9, 259.0 143.9 L 257.9 143.9 L 257.9 146.6 L 257.1 146.6 L 257.1 140.1 L 259.0 140.1 M 259.0 143.2 Q 259.6 143.2, 260.0 142.9 Q 260.3 142.6, 260.3 142.0 Q 260.3 141.4, 260.0 141.1 Q 259.6 140.8, 259.0 140.8 L 257.9 140.8 L 257.9 143.2 L 259.0 143.2 " fill="#FF7F00"/>
<path class="atom-25" d="M 279.0 141.2 Q 279.0 139.7, 279.8 138.8 Q 280.6 137.9, 282.0 137.9 Q 283.5 137.9, 284.2 138.8 Q 285.0 139.7, 285.0 141.2 Q 285.0 142.8, 284.2 143.7 Q 283.4 144.6, 282.0 144.6 Q 280.6 144.6, 279.8 143.7 Q 279.0 142.8, 279.0 141.2 M 282.0 143.9 Q 283.0 143.9, 283.5 143.2 Q 284.1 142.5, 284.1 141.2 Q 284.1 139.9, 283.5 139.3 Q 283.0 138.6, 282.0 138.6 Q 281.0 138.6, 280.5 139.3 Q 279.9 139.9, 279.9 141.2 Q 279.9 142.5, 280.5 143.2 Q 281.0 143.9, 282.0 143.9 " fill="#FF0000"/>
<path class="atom-26" d="M 226.9 142.2 L 227.7 142.2 L 227.7 145.0 L 231.1 145.0 L 231.1 142.2 L 232.0 142.2 L 232.0 148.7 L 231.1 148.7 L 231.1 145.7 L 227.7 145.7 L 227.7 148.7 L 226.9 148.7 L 226.9 142.2 " fill="#FF0000"/>
<path class="atom-26" d="M 233.3 145.5 Q 233.3 143.9, 234.1 143.0 Q 234.8 142.2, 236.3 142.2 Q 237.7 142.2, 238.5 143.0 Q 239.3 143.9, 239.3 145.5 Q 239.3 147.1, 238.5 148.0 Q 237.7 148.8, 236.3 148.8 Q 234.8 148.8, 234.1 148.0 Q 233.3 147.1, 233.3 145.5 M 236.3 148.1 Q 237.3 148.1, 237.8 147.4 Q 238.3 146.8, 238.3 145.5 Q 238.3 144.2, 237.8 143.6 Q 237.3 142.9, 236.3 142.9 Q 235.3 142.9, 234.7 143.5 Q 234.2 144.2, 234.2 145.5 Q 234.2 146.8, 234.7 147.4 Q 235.3 148.1, 236.3 148.1 " fill="#FF0000"/>
<path class="atom-27" d="M 254.0 120.5 Q 254.0 118.9, 254.8 118.0 Q 255.6 117.2, 257.0 117.2 Q 258.5 117.2, 259.2 118.0 Q 260.0 118.9, 260.0 120.5 Q 260.0 122.1, 259.2 123.0 Q 258.4 123.8, 257.0 123.8 Q 255.6 123.8, 254.8 123.0 Q 254.0 122.1, 254.0 120.5 M 257.0 123.1 Q 258.0 123.1, 258.5 122.5 Q 259.1 121.8, 259.1 120.5 Q 259.1 119.2, 258.5 118.6 Q 258.0 117.9, 257.0 117.9 Q 256.0 117.9, 255.5 118.5 Q 254.9 119.2, 254.9 120.5 Q 254.9 121.8, 255.5 122.5 Q 256.0 123.1, 257.0 123.1 " fill="#FF0000"/>
<path class="atom-27" d="M 261.0 117.2 L 261.9 117.2 L 261.9 120.0 L 265.2 120.0 L 265.2 117.2 L 266.1 117.2 L 266.1 123.7 L 265.2 123.7 L 265.2 120.7 L 261.9 120.7 L 261.9 123.7 L 261.0 123.7 L 261.0 117.2 " fill="#FF0000"/>
<path class="atom-28" d="M 167.1 101.7 Q 167.1 100.1, 167.9 99.3 Q 168.7 98.4, 170.1 98.4 Q 171.6 98.4, 172.3 99.3 Q 173.1 100.1, 173.1 101.7 Q 173.1 103.3, 172.3 104.2 Q 171.5 105.1, 170.1 105.1 Q 168.7 105.1, 167.9 104.2 Q 167.1 103.3, 167.1 101.7 M 170.1 104.3 Q 171.1 104.3, 171.6 103.7 Q 172.2 103.0, 172.2 101.7 Q 172.2 100.4, 171.6 99.8 Q 171.1 99.1, 170.1 99.1 Q 169.1 99.1, 168.6 99.8 Q 168.0 100.4, 168.0 101.7 Q 168.0 103.0, 168.6 103.7 Q 169.1 104.3, 170.1 104.3 " fill="#FF0000"/>
<path class="atom-28" d="M 174.1 98.5 L 175.0 98.5 L 175.0 101.2 L 178.3 101.2 L 178.3 98.5 L 179.2 98.5 L 179.2 105.0 L 178.3 105.0 L 178.3 102.0 L 175.0 102.0 L 175.0 105.0 L 174.1 105.0 L 174.1 98.5 " fill="#FF0000"/>
<path class="atom-29" d="M 111.1 92.7 L 112.0 92.7 L 112.0 95.4 L 115.3 95.4 L 115.3 92.7 L 116.2 92.7 L 116.2 99.2 L 115.3 99.2 L 115.3 96.2 L 112.0 96.2 L 112.0 99.2 L 111.1 99.2 L 111.1 92.7 " fill="#FF0000"/>
<path class="atom-29" d="M 117.5 95.9 Q 117.5 94.3, 118.3 93.5 Q 119.0 92.6, 120.5 92.6 Q 121.9 92.6, 122.7 93.5 Q 123.5 94.3, 123.5 95.9 Q 123.5 97.5, 122.7 98.4 Q 121.9 99.3, 120.5 99.3 Q 119.0 99.3, 118.3 98.4 Q 117.5 97.5, 117.5 95.9 M 120.5 98.5 Q 121.5 98.5, 122.0 97.9 Q 122.6 97.2, 122.6 95.9 Q 122.6 94.6, 122.0 94.0 Q 121.5 93.3, 120.5 93.3 Q 119.5 93.3, 118.9 94.0 Q 118.4 94.6, 118.4 95.9 Q 118.4 97.2, 118.9 97.9 Q 119.5 98.5, 120.5 98.5 " fill="#FF0000"/>
<path class="atom-30" d="M 18.1 172.0 L 19.0 172.0 L 19.0 174.7 L 22.3 174.7 L 22.3 172.0 L 23.2 172.0 L 23.2 178.5 L 22.3 178.5 L 22.3 175.5 L 19.0 175.5 L 19.0 178.5 L 18.1 178.5 L 18.1 172.0 " fill="#000000"/>
<path class="atom-30" d="M 24.5 178.2 Q 24.6 177.8, 25.0 177.6 Q 25.4 177.4, 25.9 177.4 Q 26.6 177.4, 26.9 177.7 Q 27.3 178.1, 27.3 178.7 Q 27.3 179.3, 26.8 179.9 Q 26.3 180.5, 25.4 181.2 L 27.4 181.2 L 27.4 181.7 L 24.5 181.7 L 24.5 181.3 Q 25.3 180.7, 25.7 180.3 Q 26.2 179.9, 26.4 179.5 Q 26.7 179.1, 26.7 178.7 Q 26.7 178.3, 26.5 178.1 Q 26.3 177.9, 25.9 177.9 Q 25.6 177.9, 25.3 178.0 Q 25.1 178.1, 24.9 178.4 L 24.5 178.2 " fill="#000000"/>
<path class="atom-30" d="M 29.2 172.0 L 31.4 175.4 Q 31.6 175.7, 31.9 176.4 Q 32.3 177.0, 32.3 177.0 L 32.3 172.0 L 33.1 172.0 L 33.1 178.5 L 32.2 178.5 L 30.0 174.7 Q 29.7 174.3, 29.4 173.8 Q 29.1 173.2, 29.0 173.1 L 29.0 178.5 L 28.2 178.5 L 28.2 172.0 L 29.2 172.0 " fill="#000000"/>
</svg>